<svg t="1721288607814" class="icon" viewBox="0 0 1024 1024" version="1.1" xmlns="http://www.w3.org/2000/svg" p-id="20868" width="48" height="48"><path d="M526.383592 44.774763c-96.774067 74.518181-200.944592 126.398782-379.38668 126.398781v327.506079c0 156.185178 200.835098 431.927313 379.38668 431.927313 178.578188 0 379.275139-275.741112 379.275139-431.927313V171.173544c-178.551582 0-282.609543-51.880601-379.275139-126.398781z m120.966049 498.486218c-4.612041 4.719488-6.746658 11.380188-5.679349 17.919115l24.804942 153.857157-129.97012-72.083735c-6.261611-3.504824-13.905708-3.504824-20.188808-0.042979l-130.265856 71.669296 25.329898-153.799852a20.932752 20.932752 0 0 0-5.63637-17.936511L297.844525 431.853635l147.609873-21.24486a20.809955 20.809955 0 0 0 4.204765-1.190105 20.788465 20.788465 0 0 0 12.112876-10.833743l65.299215-138.240481 64.733326 138.597615a20.916379 20.916379 0 0 0 15.74459 11.794628L754.812141 433.458179 647.349641 543.260981z" p-id="20869" fill="#13227a"></path></svg>