<svg t="1730969256656" class="icon" viewBox="0 0 1190 1024" version="1.1" xmlns="http://www.w3.org/2000/svg" p-id="2418" width="32" height="32"><path d="M308.889155 1023.993325a29.128578 29.128578 0 0 1-15.77798-4.247918L15.175991 855.290309a29.128578 29.128578 0 0 1-15.171135-26.094352V505.747369a30.342269 30.342269 0 0 1 16.991671-26.094352l279.755721-158.386644a30.342269 30.342269 0 0 1 30.342269 0L606.850238 485.721471a28.521733 28.521733 0 0 1 14.564289 26.094351v323.448589a29.735424 29.735424 0 0 1-15.77798 26.094351l-282.183103 158.99349a30.342269 30.342269 0 0 1-14.564289 3.641073zM60.689394 812.204286l248.199761 146.856583 249.413452-142.00182V528.807493L311.316537 382.557756 60.689394 523.95273z" fill="#0d09ba" p-id="2419"></path><path d="M878.716969 707.220035a29.128578 29.128578 0 0 1-15.77798-4.247917L585.003804 538.517019a29.128578 29.128578 0 0 1-15.171134-26.094351V188.974079a30.342269 30.342269 0 0 1 15.171134-26.094351L866.580061 3.886238a31.55596 31.55596 0 0 1 30.342269 0l278.542031 164.455098a28.521733 28.521733 0 0 1 14.564289 26.094352v323.448588a30.342269 30.342269 0 0 1-15.171135 26.094352l-280.362566 158.99349a30.342269 30.342269 0 0 1-15.77798 4.247917z m-248.199761-211.789038l248.199761 146.856583 249.413452-142.00182V212.034204l-246.986071-146.249737-248.806606 141.394974zM277.940041 101.588344h60.684538v249.413452h-60.684538z" fill="#0d09ba" p-id="2420"></path><path d="M851.408927 675.05723h60.684538v249.413452h-60.684538zM145.101587 737.865727l30.827745-52.249387 165.668789 97.702106-30.76706 52.310072zM805.895523 273.325587l30.88843-52.310072 165.668789 97.762791-30.827745 52.249388z" fill="#0d09ba" p-id="2421"></path></svg>