<svg t="1730969665899" class="icon" viewBox="0 0 1024 1024" version="1.1" xmlns="http://www.w3.org/2000/svg" p-id="14046" width="32" height="32"><path d="M260.35712 77.16352l63.95904 242.50368 151.25504-242.50368H260.35712z m31.31904 42.19392h107.8528L326.13888 237.91104l-34.46272-118.5536zM553.0368 77.16352l170.86464 242.84672 50.56-242.84672h-221.42464z m168.13568 162.44224l-86.86592-120.25344h107.01824l-20.15232 120.25344zM319.31392 390.00576H74.34752l449.152 577.57696-204.1856-577.57696z m-29.83424 42.19392l135.19872 350.21312-264.07936-350.21312h128.88064zM407.77728 387.67104l115.73248 579.62496 105.37472-579.62496H407.77728z m113.78176 415.35488L459.21792 429.86496h119.10144l-56.76032 373.16096z" p-id="14047" fill="#0d09ba"></path><path d="M260.35712 76.7232l-185.7536 242.85184 249.71264-0.34816-63.95904-242.50368z m-4.7616 75.31008l32.73216 125.07648-128.24064 0.14848 95.50848-125.22496zM520.25856 152.4736L409.71264 318.7968h224.96768L520.25856 152.4736z m0.59904 75.3152l33.5872 48.8192H488.41728l32.44032-48.8192zM774.46144 77.12256l-50.56 242.85184h247.05536l-196.49536-242.85184z m4.42368 72.26368l103.66464 128.38912h-125.52704l21.8624-128.38912zM727.51104 390.00576l-204.01152 577.57696 449.152-577.57696h-245.14048z m29.83424 42.19392h129.05472L624.70144 782.848l132.64384-350.64832z" p-id="14048" fill="#0d09ba"></path></svg>