<svg t="1730971781488" class="icon" viewBox="0 0 1024 1024" version="1.1" xmlns="http://www.w3.org/2000/svg" p-id="19140" width="32" height="32"><path d="M914.773333 260.266667l-378.88-213.333334A47.36 47.36 0 0 0 512 42.666667a50.773333 50.773333 0 0 0-23.893333 5.973333l-378.88 213.333333A46.506667 46.506667 0 0 0 85.333333 298.666667v426.666666a45.653333 45.653333 0 0 0 23.893334 39.68l378.88 213.333334A47.36 47.36 0 0 0 512 981.333333a56.32 56.32 0 0 0 23.893333-5.973333l378.88-213.333333A45.226667 45.226667 0 0 0 938.666667 725.333333V298.666667a48.213333 48.213333 0 0 0-23.893334-38.4z m-16.64 469.333333l-384 215.893333L128 728.32V298.666667l384-218.026667L898.133333 298.666667zM268.8 523.093333a251.733333 251.733333 0 0 0 256 246.613334 268.373333 268.373333 0 0 0 85.333333-14.08 14.933333 14.933333 0 0 0 7.68-4.693334 20.48 20.48 0 0 0 0-28.586666l-157.866666-143.36 123.306666-119.893334L735.573333 597.333333a22.186667 22.186667 0 0 0 20.48 5.12 24.746667 24.746667 0 0 0 15.786667-15.36 232.533333 232.533333 0 0 0 8.533333-64.426666 251.733333 251.733333 0 0 0-256-246.613334 252.16 252.16 0 0 0-255.573333 247.04z m256-204.8a210.346667 210.346667 0 0 1 213.333333 205.653334v17.92L597.333333 414.72a22.186667 22.186667 0 0 0-29.866666 0l-153.173334 149.333333a18.773333 18.773333 0 0 0-5.973333 14.506667 17.92 17.92 0 0 0 6.4 14.933333L563.626667 725.333333l-17.92 2.133334h-20.906667a209.92 209.92 0 0 1-213.333333-205.653334 210.346667 210.346667 0 0 1 213.333333-203.52z m110.08 264.96a39.68 39.68 0 0 1-79.36 0 39.68 39.68 0 0 1 79.36 0z" fill="#0d09ba" p-id="19141"></path></svg>