<svg t="1730971947819" class="icon" viewBox="0 0 1024 1024" version="1.1" xmlns="http://www.w3.org/2000/svg" p-id="21407" width="32" height="32"><path d="M416.922457 542.863655a29.814838 29.814838 0 0 0 23.014983-10.82293l189.814312-229.094999c9.398417-12.77968 7.197225-30.668583-5.014095-40.795513-12.21132-10.12693-30.197759-8.974555-41.017077 2.625055L393.902656 493.896758a29.96054 29.96054 0 0 0-3.96046 31.755933 29.964153 29.964153 0 0 0 26.980261 17.210964M626.346406 395.292249L351.399654 725.212216c-10.573671 12.680939-8.870998 31.529552 3.809942 42.103223 12.676123 10.573671 31.529552 8.866181 42.103223-3.809942l275.008163-329.952478a29.914783 29.914783 0 0 0 5.075507-29.474062 29.923212 29.923212 0 0 0-22.987289-19.130385 29.915987 29.915987 0 0 0-28.062794 10.343677" p-id="21408" fill="#0d09ba"></path><path d="M899.05584 892.900208H148.174687c-44.913717 0-81.453752-36.541239-81.453752-81.454956V199.991816c0-44.913717 36.540035-81.453752 81.453752-81.453752h750.881153c44.912513 0 81.452548 36.540035 81.452548 81.453752v611.453436c-0.001204 44.913717-36.540035 81.454956-81.452548 81.454956zM148.174687 173.930324c-14.370367 0-26.062696 11.691125-26.062696 26.062696v611.453436c0 14.371571 11.691125 26.0639 26.062696 26.0639h750.881153c14.370367 0 26.061492-11.692329 26.061492-26.0639V199.991816c0-14.370367-11.691125-26.062696-26.061492-26.062696H148.174687z" p-id="21409" fill="#0d09ba"></path></svg>