<svg t="1730972081022" class="icon" viewBox="0 0 1024 1024" version="1.1" xmlns="http://www.w3.org/2000/svg" p-id="26586" width="32" height="32"><path d="M512 960.16002c-16.696264 0-32.390711-6.500041-44.193525-18.306948L82.144882 556.193525c-11.80486-11.80486-18.304901-27.499307-18.304902-44.193525 0-16.694217 6.500041-32.388664 18.304902-44.193525L467.806475 82.144882c11.80486-11.802814 27.499307-18.304901 44.193525-18.304902 16.692171 0 32.386618 6.500041 44.191478 18.302855l385.661594 385.66364c11.80486 11.80486 18.306948 27.499307 18.306948 44.193525 0 16.694217-6.502088 32.388664-18.306948 44.193525L556.193525 941.855118c-11.80486 11.80486-27.499307 18.304901-44.193525 18.304902z m0-847.870584a13.95585 13.95585 0 0 0-9.934257 4.114714L116.40415 502.065743c-2.653433 2.653433-4.114714 6.182816-4.114714 9.934257s1.461281 7.280824 4.114714 9.934257l385.661593 385.661593c5.302773 5.302773 14.556531 5.306866 19.86749 0l385.659547-385.661593c2.653433-2.653433 4.116761-6.182816 4.116761-9.934257s-1.462305-7.280824-4.116761-9.934257L521.934257 116.40415a13.963013 13.963013 0 0 0-9.934257-4.114714z" fill="#0d09ba" p-id="26587"></path><path d="M511.959068 762.245438c-13.602809 0-26.164916-6.304589-34.523281-17.311271L290.197358 512.228197a30.439266 30.439266 0 0 1-1.087774-1.438768c-10.543124-14.856359-11.094686-35.20378-1.368161-50.614771l72.090899-115.03292c7.9296-12.82612 21.681812-20.543895 36.716226-20.543895h230.822063c14.801101 0 28.503171 7.579629 36.648688 20.277835l0.248663 0.398066 71.93331 114.941846c9.900487 15.359826 9.309016 35.901675-1.620917 50.89004-0.193405 0.274246-0.551562 0.744967-0.930186 1.210572L546.576493 744.940306c-8.251941 10.842952-21.160949 17.305131-34.617425 17.305132z m-190.038194-274.997168L509.549182 720.467939c1.048889 1.406023 2.074242 1.406023 2.408862 1.406022 0.887206 0 1.87265-0.553609 2.511194-1.411139l0.449231-0.581238 187.064467-232.613872c1.108241-1.727341 1.119497-3.876284 0.134053-5.406126l-72.15025-115.284653c-0.63138-0.981351-1.600451-1.602498-2.598175-1.602498H396.547525c-1.312902 0-2.093684 0.944512-2.440586 1.508354L321.917804 481.673298c-1.037632 1.641383-1.014096 3.974521 0.00307 5.574972z" fill="#0d09ba" p-id="26588"></path><path d="M447.678042 534.972201c-4.999874 8.615215-0.980327 15.59928 8.978489 15.59928h110.693078c9.957793 0 13.9712-6.983041 8.971325-15.582907l-55.325049-95.145987c-5.003967-8.607028-13.113669-8.601912-18.114567 0.015349l-55.203276 95.114265z" fill="#0d09ba" p-id="26589"></path></svg>