<svg t="1720160229612" class="icon" viewBox="0 0 1027 1024" version="1.1" xmlns="http://www.w3.org/2000/svg" p-id="19403" width="18" height="18"><path d="M513.936032 1024a511.984766 511.984766 0 1 1 513.936033-511.984766 513.217145 513.217145 0 0 1-513.936033 511.984766z m0-948.246726a436.261959 436.261959 0 1 0 437.939364 436.26196A437.357407 437.357407 0 0 0 513.936032 75.787507z" p-id="19404" fill="#bb030f"></path><path d="M599.038608 517.697867l-188.280035-187.595381a37.656007 37.656007 0 0 1 53.334599-53.129203l215.666223 214.741939a38.0668 38.0668 0 0 1 0 54.224651l-215.666223 214.741939a37.656007 37.656007 0 0 1-53.334599-53.129203l188.280035-189.854742z" p-id="19405" fill="#bb030f"></path></svg>