<svg t="1721290320055" class="icon" viewBox="0 0 1024 1024" version="1.1" xmlns="http://www.w3.org/2000/svg" p-id="51383" width="48" height="48"><path d="M313.3 334.3l142-107.9c39-29.1 90.5-36.5 135.3-19.1l225.8 86.3c14.9 5.8 30.7 8.3 45.7 8.3h37.4c10.8 0 19.9 8.3 19.9 19.1v277.3c0 10.8-9.1 19.9-19.9 19.9h-49c-6.6 0-14.1 2.5-19.1 6.6l-10.8 9.1c-2.5 2.5-6.6 1.7-9.1-0.8L548.3 312.7c-6.6-8.3-18.3-10-27.4-5L400.5 375c-24.1 13.3-53.1 14.9-78.9 4.2-13.3-5.8-19.9-21.6-14.1-35.7 0-3.4 2.5-6.7 5.8-9.2z" fill="#13227a" p-id="51384"></path><path d="M127.3 617.4h42.3l29.9-36.5c26.6-32.4 74.7-36.5 107.1-10 11.6 10 20.8 23.3 24.9 38.2 25.7 6.6 45.7 26.6 53.1 52.3 18.3 5.8 34.9 17.4 44 34.9 15.8 2.5 30.7 10 42.3 21.6 24.1 25.7 29.1 63.9 10.8 94.7l-4.2 7.5v0.8c19.9 13.3 46.5 9.1 60.6-10.8 6.6-10 9.1-21.6 6.6-33.2v-0.9h0.8l3.3 3.3c14.9 14.9 39 17.4 56.5 5.8 14.1-10 20.8-27.4 17.4-44v-0.8h0.8l3.3 3.3c14.9 14.9 38.2 17.4 56.5 5.8 14.1-10 21.6-27.4 18.3-44v-0.8h0.8l3.3 3.3c14.1 14.1 36.5 16.6 53.1 6.6 20.8-12.5 27.4-39 14.9-59.8-1.7-2.5-3.3-5-5-6.6l-26.6-32.4-215-261.5c-2.5-2.5-5.8-3.3-9.1-1.7l-103 57.3c-33.2 18.3-72.2 21.6-107.9 8.3-19.9-6.6-34.9-22.4-42.3-41.5-5.8-19.9-3.3-41.5 7.5-58.9 2.5-5 0.8-10.8-4.1-13.3-1.7-0.8-3.3-0.8-5-0.8h-140c-10.8 0-19.9 8.3-19.9 19.1v276.5c4.1 9.9 13.2 18.2 24 18.2z" fill="#13227a" p-id="51385"></path><path d="M276.8 597.5c-16.6-9.1-36.5-5-48.2 10l-29.1 35.7c-12.5 15.8-10.8 39 5 51.5h0.8l4.2 3.3c11.6 9.1 28.2 10 40.7 3.3 0.8-0.8 1.7 0 2.5 0.8v1.7c-2.5 13.3 2.5 27.4 13.3 35.7l3.3 2.5c11.6 9.1 26.6 10 39.9 4.2 0.8-0.8 2.5 0 2.5 0.8v0.8c-1.7 12.5 4.2 24.9 14.1 33.2l2.5 1.7c11.6 9.1 26.6 10.8 39.9 3.3 0.8-0.8 2.5 0 2.5 0.8v0.8c1.7 9.1 6.6 17.4 14.1 23.2l1.7 0.8c16.6 12.5 39.9 10 52.3-6.6 0.8-1.7 2.5-3.3 3.3-4.2l5-9.1c9.1-15.8 6.6-34.9-6.6-47.3-10.8-10-26.6-12.5-40.7-6.6-0.8 0-0.8 0-1.7-0.8v-0.8c0.8-19.9-14.9-37.4-34.9-39-5 0-10 0.8-14.9 2.5-5.8 0.8-4.2-4.1-4.2-4.1 7.5-19.1-0.8-39.9-19.9-48.2-10-4.2-22.4-3.3-31.6 1.7-4.2 0.8-3.3-3.3-3.3-3.3 10.7-16 4.9-38.4-12.5-48.3z" fill="#13227a" p-id="51386"></path></svg>