<svg t="1727599022366" class="icon" viewBox="0 0 1024 1024" version="1.1" xmlns="http://www.w3.org/2000/svg" p-id="3720" width="128" height="128"><path d="M113.793 685.398V336.469c0-33.682 18.085-65.075 47.295-81.967L463.217 80.036c29.215-16.886 65.478-16.886 94.586 0l302.236 174.466c29.207 16.892 47.29 48.284 47.29 81.967v348.929c0 33.682-18.08 65.074-47.29 81.967L557.803 941.83c-29.211 16.889-65.473 16.889-94.586 0L161.088 767.365c-29.207-16.893-47.295-48.284-47.295-81.967z m766.069-343.671c0-27.172-14.647-52.421-38.063-66.009l-293.13-169.211c-23.51-13.489-52.713-13.489-76.222 0l-293.126 169.21c-23.513 13.587-38.06 38.836-38.06 66.009v338.419c0 27.171 14.642 52.418 38.06 66.007l293.126 169.21c23.51 13.583 52.713 13.583 76.222 0l293.034-169.21c23.513-13.587 38.06-38.836 38.06-66.007V341.727h0.099z m11.471-5.258z" p-id="3721" fill="#ffffff"></path></svg>