<svg t="1721288475810" class="icon" viewBox="0 0 1152 1024" version="1.1" xmlns="http://www.w3.org/2000/svg" p-id="17618" width="48" height="48"><path d="M576.090014 1021.839662l-192.630098-330.531645a2163.938115 2163.938115 0 0 0-279.403657 132.140647C31.684951 873.136428 0 1024 0 1024h1152.14438s-21.243319-141.862166-105.85654-200.19128a2171.499297 2171.499297 0 0 0-279.763713-132.140647zM576.090014 756.118143l-64.810127 67.690577 32.045008 65.890295-95.774965 132.140647h255.639943l-95.774964-132.140647 32.045007-65.890295z m6.841069-756.118143C864.135021 0 864.135021 220.714487 864.135021 344.57384s-112.697609 354.655415-281.924051 355.015471S299.926864 468.073136 299.926864 344.57384 300.646976 0 581.850914 0z m326.571027 423.786217h-42.846695V227.555556l87.493671 106.216596zM209.192686 333.772152l87.853728-106.216596v196.230661H254.559775z m689.14768 91.45429s-36.005626 195.870605-171.026723 271.122363c-65.170183 36.005626 53.288326-81.012658 53.288326-81.012659a440.708861 440.708861 0 0 0 96.855134-190.109704c23.763713-108.016878 21.243319 0 21.243319 0z m0 0" fill="#fff" p-id="17619"></path></svg>