<svg t="1722233063402" class="icon" viewBox="0 0 1024 1024" version="1.1" xmlns="http://www.w3.org/2000/svg" p-id="1253" width="36" height="36"><path d="M861.090909 546.909091H182.923636a34.909091 34.909091 0 1 1 0-69.818182H861.090909a34.909091 34.909091 0 0 1 0 69.818182z" fill="#ffffff" p-id="1254"></path><path d="M162.909091 546.909091a34.8443636 34.8443636 0 0 1-23.272727-10.007273 34.909091 34.909091 0 0 1 0-49.338182l182.458181-186.181818a34.909091 34.909091 0 1 1 49.803637 48.872727l-182.458182 186.181819A34.8443636 34.8443636 0 0 1 162.909091 546.909091z" fill="#ffffff" p-id="1255"></path><path d="M345.367273 733.090909a34.8443636 34.8443636 0 0 1-24.901818-10.472727l-182.458182-186.181818A34.909091 34.909091 0 1 1 187.810909 488.727273l182.458182 186.181818a34.909091 34.909091 0 0 1-24.901818 59.345454z" fill="#ffffff" p-id="1256"></path></svg>