<svg t="1722566163918" class="icon" viewBox="0 0 1024 1024" version="1.1" xmlns="http://www.w3.org/2000/svg" p-id="12271" width="48" height="48"><path d="M496.32 101.952c19.776-6.72 43.648-10.432 66.048 3.904 22.016 14.08 29.12 37.12 32.128 57.856 2.816 19.968 2.816 45.952 2.816 76.032v64.512l186.688 93.376c10.24 5.12 20.608 10.24 29.056 15.616 9.6 6.144 19.84 14.336 27.52 26.88 7.808 12.608 10.56 25.344 11.776 36.736 1.024 9.92 1.024 21.504 1.024 32.96v332.8h21.312a42.688 42.688 0 0 1 0 85.376H149.312a42.688 42.688 0 0 1 0-85.312H192v-513.28c0-12.16 0-23.552 0.96-33.152 1.024-10.624 3.456-21.76 9.92-32.576 6.464-10.88 15.104-18.24 24.064-24.128 7.936-5.248 17.856-10.432 28.288-15.872l174.08-90.304c25.792-13.44 48.32-25.088 67.008-31.424z m100.992 740.736H768V511.36c0-13.76 0-20.8-0.576-25.792v-0.256l-0.192-0.128a289.792 289.792 0 0 0-22.784-12.032L597.312 399.68v8443.008zM341.312 384a32 32 0 0 0 32 32H416a32 32 0 0 0 0-64h-42.688a32 32 0 0 0-32 32z m0 170.688a32 32 0 0 0 32 32H416a32 32 0 0 0 0-64h-42.688a32 32 0 0 0-32 32z m0 170.624a32 32 0 0 0 32 32H416a32 32 0 1 0 0-64h-42.688a32 32 0 0 0-32 32z" fill="#211915" p-id="12272"></path></svg>