<svg t="1726710821243" class="icon" viewBox="0 0 1024 1024" version="1.1" xmlns="http://www.w3.org/2000/svg" p-id="5570" width="128" height="128"><path d="M771.697778 817.493333h-540.444445v-262.542222a554.951111 554.951111 0 0 1 142.222223-369.777778l127.715555-142.222222 127.431111 142.222222a553.813333 553.813333 0 0 1 142.222222 369.777778z m-483.555556-56.888889h426.666667v-205.653333a497.777778 497.777778 0 0 0-128.284445-331.662222l-85.333333-95.288889-85.333333 95.288889a498.915556 498.915556 0 0 0-128 331.662222z" fill="#0D09BA" p-id="5571" data-spm-anchor-id="a313x.search_index.0.i1.7ad53a81Q5rpFl" class="selected"></path><path d="M501.475556 476.16a99.555556 99.555556 0 1 1 99.555555-99.555556 99.555556 99.555556 0 0 1-99.555555 99.555556z m0-142.222222a42.666667 42.666667 0 1 0 42.666666 42.666666 42.666667 42.666667 0 0 0-42.666666-42.666666zM288.142222 817.493333h-199.111111v-155.875555l199.111111-159.288889z m-142.222222-56.888889h85.333333v-139.946666l-85.333333 68.266666zM913.92 817.493333h-199.111111V502.328889l199.111111 159.288889z m-142.222222-56.888889h85.333333v-71.68l-85.333333-68.266666zM474.453333 838.257778h56.888889V967.111111h-56.888889zM332.231111 838.257778h56.888889V967.111111h-56.888889zM616.675556 838.257778h56.888888V967.111111h-56.888888z" fill="#0D09BA" p-id="5572" data-spm-anchor-id="a313x.search_index.0.i0.7ad53a81Q5rpFl" class="selected"></path></svg>