<svg t="1726711680757" class="icon" viewBox="0 0 1024 1024" version="1.1" xmlns="http://www.w3.org/2000/svg" p-id="33624" width="128" height="128"><path d="M960 960V351.963429c0-12.8-6.436571-25.6-19.163429-25.6l-256-128c-12.8-6.363429-32.036571 0-44.836571 12.8-6.436571 12.8 0 32.036571 12.8 44.836571l243.2 115.2v588.8H576V31.963429c0-12.726857-6.436571-19.163429-12.8-25.6C550.4 0 543.963429 0 531.163429 0L83.309714 192a35.181714 35.181714 0 0 0-19.236571 32.036571v735.963429H0V1024h1024v-64h-64z m-448 0H128v-716.8L512 76.8v883.2z m-288.036571-384h128c19.236571 0 32.036571-12.8 32.036571-32.036571 0-19.163429-12.8-31.963429-32.036571-31.963429h-128c-19.163429 0-31.963429 12.8-31.963429 32.036571 0 19.163429 12.8 31.963429 32.036571 31.963429z m0 128h128c19.236571 0 32.036571-12.8 32.036571-32.036571 0-19.163429-12.8-31.963429-32.036571-31.963429h-128c-19.163429 0-31.963429 12.8-31.963429 32.036571 0 19.163429 12.8 31.963429 32.036571 31.963429z m0 128h128c19.236571 0 32.036571-12.8 32.036571-32.036571 0-19.163429-12.8-31.963429-32.036571-31.963429h-128c-19.163429 0-31.963429 12.8-31.963429 32.036571 0 19.163429 12.8 31.963429 32.036571 31.963429z m448.073142-256h128c19.163429 0 31.963429-12.8 31.963429-32.036571 0-19.163429-12.8-31.963429-32.036571-31.963429h-128c-19.163429 0-31.963429 12.8-31.963429 32.036571 0 19.163429 12.8 31.963429 32.036571 31.963429z m0 128h128c19.163429 0 31.963429-12.8 31.963429-32.036571 0-19.163429-12.8-31.963429-32.036571-31.963429h-128c-19.163429 0-31.963429 12.8-31.963429 32.036571 0 19.163429 12.8 31.963429 32.036571 31.963429z m0 128h128c19.163429 0 31.963429-12.8 31.963429-32.036571 0-19.163429-12.8-31.963429-32.036571-31.963429h-128c-19.163429 0-31.963429 12.8-31.963429 32.036571 0 19.163429 12.8 31.963429 32.036571 31.963429z" fill="#0d09ba" p-id="33625"></path></svg>