<svg t="1726711082647" class="icon" viewBox="0 0 1152 1024" version="1.1" xmlns="http://www.w3.org/2000/svg" p-id="10816" data-spm-anchor-id="a313x.search_index.0.i17.7ad53a81Q5rpFl" width="128" height="128"><path d="M858.88 487.36c33.92 0 61.44 27.968 61.44 61.44v5.952l6.464 2.56 4.48-4.48a61.248 61.248 0 0 1 86.976 0l24 23.936c11.52 11.52 17.92 26.88 17.92 43.392 0 16.512-6.4 32-17.92 43.456l-4.48 4.48 2.496 6.528h5.952c33.984 0 61.44 27.456 61.44 61.44v33.92c0 33.92-27.456 61.376-61.44 61.376h-5.952l-2.56 6.464 4.48 4.48c11.52 11.52 18.048 27.008 18.048 43.52 0 16.448-6.528 31.936-17.984 43.392l-24 23.936a61.248 61.248 0 0 1-43.52 17.984 62.144 62.144 0 0 1-43.456-17.92l-3.968-4.032-6.464 2.496v6.016c0 33.92-27.52 61.44-61.44 61.44h-34.048a61.44 61.44 0 0 1-61.44-61.44v-6.016l-6.528-2.496-4.48 4.48a61.248 61.248 0 0 1-43.52 17.984 61.248 61.248 0 0 1-43.456-17.92l-24.448-24.512a61.44 61.44 0 0 1 0-86.848l4.48-4.48-2.496-6.528H637.44a61.44 61.44 0 0 1-61.44-61.44v-33.92c0-33.92 27.52-61.44 61.44-61.44h6.016l2.56-6.4-4.544-4.544a61.12 61.12 0 0 1-17.984-43.456c0-16.448 6.464-31.936 17.92-43.392l24.064-24c11.52-11.52 26.944-17.92 43.456-17.92 16.512 0 32 6.4 43.52 17.92l4.48 4.48 6.464-2.496v-5.952c0-33.92 27.52-61.44 61.44-61.44z m0 44.48h-34.048a16.832 16.832 0 0 0-16.96 16.96v20.48c0 8.96-7.488 18.944-16.512 21.952l-28.48 11.968a24.96 24.96 0 0 1-10.496 2.56 24.32 24.32 0 0 1-16.448-6.528l-14.528-14.464a15.488 15.488 0 0 0-11.968-4.992 16.256 16.256 0 0 0-12.032 4.992l-23.936 23.936a17.152 17.152 0 0 0 0 23.936l14.464 14.528a24.32 24.32 0 0 1 3.968 26.88l-11.968 28.48a24.256 24.256 0 0 1-21.952 16.512h-20.48a16.832 16.832 0 0 0-17.024 16.96v33.92c0 9.536 7.488 17.024 16.96 17.024h20.48c9.536 0 19.008 7.488 22.016 16.448l11.968 28.48c4.48 8 2.56 20.48-3.968 26.944l-14.464 14.464a17.152 17.152 0 0 0 0 24l23.936 23.936a16.256 16.256 0 0 0 12.032 4.992c4.48 0 8.448-1.472 11.968-4.992l14.528-14.464a24.32 24.32 0 0 1 16.448-6.464c4.032 0 7.488 0.96 10.496 2.496l28.48 11.968c8.96 2.496 16.512 12.48 16.512 21.952v20.48c0 9.472 7.488 16.96 16.96 16.96h33.984a16.832 16.832 0 0 0 17.024-16.96v-20.48c0-8.96 7.488-18.944 16.448-21.952l28.544-11.968a24.704 24.704 0 0 1 27.52 3.968h-0.064l14.464 14.464a15.488 15.488 0 0 0 12.032 4.992c4.48 0 8.512-1.472 11.968-4.992l24-23.936a17.152 17.152 0 0 0 0-24l-14.464-14.464a24.32 24.32 0 0 1-4.032-26.944l11.968-28.48a24.256 24.256 0 0 1 22.016-16.448h20.48a16.832 16.832 0 0 0 17.024-16.96v-33.92a16.832 16.832 0 0 0-17.024-17.024h-20.48a25.344 25.344 0 0 1-22.016-16.512l-11.968-28.416a24.384 24.384 0 0 1 4.032-26.944l14.464-14.528a17.152 17.152 0 0 0 0-23.936l-24-23.936a15.488 15.488 0 0 0-11.968-4.992 16.256 16.256 0 0 0-12.032 4.992l-14.464 14.464a26.624 26.624 0 0 1-17.024 6.464 23.232 23.232 0 0 1-10.432-2.496l-28.544-11.968a24.192 24.192 0 0 1-16.448-21.952v-20.48a16.832 16.832 0 0 0-17.024-16.96zM794.624 0c40.96 0 77.76 9.6 106.24 27.84 30.272 19.264 50.56 48 58.88 83.072l41.344 158.4h96.256c30.08 0 54.592 19.52 54.592 43.52V332.8c0 23.36-23.104 42.496-52.032 43.52l-4.736 0.64c6.144 15.872 9.28 32.64 9.344 50.24l11.136 131.2a334.08 334.08 0 0 0-69.44-60.928c-1.088-20.992-2.304-44.032-3.776-68.864v-0.64c0-21.312-5.44-40.128-16.64-57.6a18.56 18.56 0 0 1 13.568-28.544l57.984-6.784c1.6 0 2.88-0.96 2.88-2.24V312.96c0-1.28-1.28-2.304-2.88-2.304l-98.048 8.96a64 64 0 0 1-66.944-44.608l-38.784-124.096a91.52 91.52 0 0 0-40.32-58.624c-19.2-12.224-44.8-18.752-73.984-18.752H364.416c-31.232 0-57.28 7.36-77.44 21.952a94.72 94.72 0 0 0-36.992 55.488l-37.952 124.032a64 64 0 0 1-67.712 44.928L54.528 310.592c-1.536 0-2.816 1.088-2.816 2.304V332.8c0 1.28 1.28 2.24 2.816 2.24l64.64 7.168c10.176 1.088 17.472 10.24 16.32 20.352l-0.896 4.16-1.92 3.84c-11.136 17.28-16.512 36.032-16.512 57.344l-0.064 1.408a5340.8 5340.8 0 0 0-8.768 179.52 5651.328 5651.328 0 0 0 0 186.496c0 11.136 11.392 20.224 25.344 20.224h48.192c13.888 0 25.28-9.088 25.28-20.224v-48.128a64 64 0 0 1 56.512-63.552l7.488-0.448h274.56c-7.168 24.64-11.52 50.56-12.672 77.184H266.24v83.2c0 33.92-34.56 61.568-76.992 61.568H110.976c-42.496 0-77.056-27.648-77.056-61.568V618.688c0-2.56 0.256-5.12 0.704-7.936a90.24 90.24 0 0 1-0.704-11.2v-1.344l14.4-171.008c0.128-17.536 3.2-34.304 9.28-50.048L51.968 376.32C23.104 375.296 0 356.16 0 332.8v-19.968c0-24.064 24.448-43.584 54.528-43.584H151.68l41.344-158.464a134.4 134.4 0 0 1 53.12-78.272C275.584 11.264 314.432 0 358.208 0h436.48z m47.168 668.16a85.376 85.376 0 1 1 0 170.688 85.376 85.376 0 1 1 0-170.752z m0 44.352a41.152 41.152 0 0 0-40.96 40.96c0 22.464 18.432 40.96 40.96 40.96 22.464 0 40.96-17.984 40.96-40.96a41.152 41.152 0 0 0-40.96-40.96zM276.864 480.064c57.024 0 103.424 37.12 103.424 82.688 0 45.568-46.4 82.56-103.424 82.56-57.024 0-103.424-36.992-103.424-82.56 0-45.568 46.4-82.688 103.424-82.688z m410.112 8.064c2.944 0 5.888 0.192 8.704 0.64-19.84 11.712-38.272 25.28-55.104 40.64H472.192v47.36h125.376c-9.792 13.056-18.56 26.88-26.368 41.344h-101.76c-27.072 0-49.024-17.536-49.024-39.104v-51.84c0-21.504 21.952-39.04 48.96-39.04h217.6z m-414.08 30.08c-22.656 0-41.152 19.712-41.152 43.904 0 24.128 18.496 43.776 41.152 43.776 22.72 0 41.152-19.648 41.152-43.776 0-24.192-18.432-43.84-41.152-43.84z m537.856-404.096c24.768 0 46.464 15.552 54.784 38.272l2.112 7.04c22.016 76.096 32.384 120.768 31.104 134.016-1.92 19.84-16 45.952-39.744 60.032a142.272 142.272 0 0 1-70.4 19.392H367.808c-23.936 0-49.6-7.04-70.4-19.392-23.744-14.08-37.888-40.192-39.808-60.032-1.28-13.248 8.96-57.472 30.848-132.736l0.32-1.408a58.624 58.624 0 0 1 57.088-45.184h464.896zM345.728 187.2c-19.52 12.544-34.048 68.16-29.696 83.776 4.416 15.552 24.32 31.104 49.664 31.104h420.864c25.408 0 42.368-15.552 46.72-31.104 4.352-15.616-3.584-71.04-27.072-83.712-23.488-12.672-440.96-12.672-460.48-0.064z" fill="#0D09BA" p-id="10817" data-spm-anchor-id="a313x.search_index.0.i18.7ad53a81Q5rpFl" class="selected"></path></svg>