<svg t="1726709478120" class="icon" viewBox="0 0 1024 1024" version="1.1" xmlns="http://www.w3.org/2000/svg" p-id="8282" width="128" height="128"><path d="M390.4 536H144.8v316c0 32.8 55.2 58.4 122.4 58.4s122.4-26.4 122.4-58.4v-4l0.8-312z" fill="#FFFFFF" p-id="8283"></path><path d="M390.4 536h-49.6v296c0 32.8-55.2 58.4-122.4 58.4-18.4 0-35.2-1.6-50.4-5.6 22.4 15.2 59.2 25.6 100.8 25.6 68 0 122.4-26.4 122.4-58.4V536z" fill="#FFFFFF" p-id="8284"></path><path d="M268 930.4c-36 0-69.6-6.4-95.2-19.2-30.4-14.4-47.2-36-47.2-59.2v-2.4V536c0-11.2 8.8-20 20-20h244.8c11.2 0 20 8.8 20 20v316c0 24-16.8 44.8-47.2 59.2-25.6 12.8-60 19.2-95.2 19.2z m-103.2-85.6v8c0 7.2 9.6 16 24.8 23.2 20 9.6 48.8 15.2 78.4 15.2s57.6-5.6 78.4-15.2c15.2-7.2 24.8-16 24.8-23.2v-1.6-294.4H164.8v288z" fill="#0D09BA" p-id="8285" data-spm-anchor-id="a313x.search_index.0.i11.3deb3a81eYQ4Vq" class="selected"></path><path d="M144.8 531.2c0 32.8 55.2 58.4 122.4 58.4 68 0 122.4-26.4 122.4-58.4 0-32.8-55.2-58.4-122.4-58.4-67.2-0.8-121.6 25.6-122.4 58.4z" fill="#FFFFFF" p-id="8286"></path><path d="M268 472c-41.6 0-78.4 9.6-100.8 25.6 15.2-3.2 32.8-5.6 50.4-5.6 68 0 122.4 26.4 122.4 58.4 0 12.8-8 24-21.6 33.6 42.4-9.6 72-29.6 72-53.6 0-32-55.2-58.4-122.4-58.4z" fill="#FFFFFF" p-id="8287"></path><path d="M268 609.6c-36 0-69.6-6.4-95.2-19.2-30.4-14.4-47.2-36-47.2-59.2s16.8-44.8 47.2-59.2c25.6-12 59.2-19.2 95.2-19.2s69.6 6.4 95.2 19.2c30.4 14.4 47.2 36 47.2 59.2s-16.8 44.8-47.2 59.2c-25.6 12.8-60 19.2-95.2 19.2z m0-117.6c-29.6 0-57.6 5.6-78.4 15.2-15.2 7.2-24.8 16-24.8 23.2s9.6 16 24.8 23.2c20 9.6 48.8 15.2 78.4 15.2s57.6-5.6 78.4-15.2c15.2-7.2 24.8-16 24.8-23.2s-9.6-16-24.8-23.2c-20.8-9.6-49.6-15.2-78.4-15.2z" fill="#0D09BA" p-id="8288" data-spm-anchor-id="a313x.search_index.0.i12.3deb3a81eYQ4Vq" class="selected"></path><path d="M634.4 320H389.6v532c0 32.8 55.2 58.4 122.4 58.4s122.4-26.4 122.4-58.4V320z" fill="#FFFFFF" p-id="8289"></path><path d="M634.4 320h-49.6v512c0 32.8-55.2 58.4-122.4 58.4-18.4 0-35.2-1.6-50.4-5.6 22.4 15.2 59.2 25.6 100.8 25.6 68 0 122.4-26.4 122.4-58.4v-4c-0.8 0-0.8-528-0.8-528z" fill="#FFFFFF" p-id="8290"></path><path d="M512 930.4c-36 0-69.6-6.4-95.2-19.2-30.4-14.4-47.2-36-47.2-59.2v-2.4V320c0-11.2 8.8-20 20-20h244.8c11.2 0 20 8.8 20 20v532c0 24-16.8 44.8-47.2 59.2-25.6 12.8-59.2 19.2-95.2 19.2z m-102.4-85.6v8c0 7.2 9.6 16 24.8 23.2 20 9.6 48.8 15.2 78.4 15.2 29.6 0 57.6-5.6 78.4-15.2 15.2-7.2 24.8-16 24.8-23.2v-1.6-510.4H409.6v504z" fill="#0D09BA" p-id="8291" data-spm-anchor-id="a313x.search_index.0.i14.3deb3a81eYQ4Vq" class="selected"></path><path d="M389.6 321.6c0 32.8 55.2 58.4 122.4 58.4 68 0 122.4-26.4 122.4-58.4 0-32.8-55.2-58.4-122.4-58.4s-122.4 26.4-122.4 58.4z" fill="#FFFFFF" p-id="8292"></path><path d="M512 263.2c-26.4 0-51.2 4-71.2 11.2 6.4-0.8 13.6-0.8 20.8-0.8 68 0 122.4 26.4 122.4 58.4 0 20-20 37.6-51.2 48 57.6-4.8 101.6-28.8 101.6-57.6 0-32.8-54.4-59.2-122.4-59.2z" fill="#FFFFFF" p-id="8293"></path><path d="M512 400.8c-36 0-69.6-6.4-95.2-19.2-30.4-14.4-47.2-36-47.2-59.2s16.8-44.8 47.2-59.2c25.6-12 60-19.2 95.2-19.2s69.6 7.2 95.2 19.2c30.4 14.4 47.2 36 47.2 59.2s-16.8 44.8-47.2 59.2c-25.6 12-59.2 19.2-95.2 19.2z m0-117.6c-29.6 0-57.6 5.6-78.4 15.2-15.2 7.2-24.8 16-24.8 23.2s9.6 16 24.8 23.2c20 9.6 48.8 15.2 78.4 15.2 29.6 0 57.6-5.6 78.4-15.2 15.2-7.2 24.8-16 24.8-23.2s-9.6-16-24.8-23.2c-20.8-9.6-48.8-15.2-78.4-15.2z" fill="#0D09BA" p-id="8294" data-spm-anchor-id="a313x.search_index.0.i13.3deb3a81eYQ4Vq" class="selected"></path><path d="M878.4 188H633.6v664c0 32.8 55.2 58.4 122.4 58.4s122.4-26.4 122.4-58.4v-664z" fill="#FFFFFF" p-id="8295"></path><path d="M878.4 188h-49.6v633.6c0 32.8-55.2 58.4-122.4 58.4-24 0-46.4-3.2-65.6-8.8 16.8 22.4 62.4 39.2 115.2 39.2 68 0 122.4-26.4 122.4-58.4v-664z" fill="#FFFFFF" p-id="8296"></path><path d="M756 930.4c-36 0-69.6-6.4-95.2-19.2-30.4-14.4-47.2-36-47.2-59.2v-2.4-661.6c0-11.2 8.8-20 20-20h244.8c11.2 0 20 8.8 20 20v664c0 24-16.8 44.8-47.2 59.2-25.6 12.8-59.2 19.2-95.2 19.2z m-102.4-85.6c0.8 2.4 0.8 4 0 6.4v1.6c0 7.2 9.6 16 24.8 23.2 20 9.6 48.8 15.2 78.4 15.2 29.6 0 57.6-5.6 78.4-15.2 15.2-7.2 24.8-16 24.8-23.2v-1.6V208H653.6v636.8z" fill="#0D09BA" p-id="8297" data-spm-anchor-id="a313x.search_index.0.i16.3deb3a81eYQ4Vq" class="selected"></path><path d="M633.6 172c0 32.8 55.2 58.4 122.4 58.4s122.4-26.4 122.4-58.4-55.2-58.4-122.4-58.4-122.4 25.6-122.4 58.4z" fill="#FFFFFF" p-id="8298"></path><path d="M756 113.6c-26.4 0-51.2 4-71.2 11.2 6.4-0.8 13.6-0.8 20.8-0.8 68 0 122.4 26.4 122.4 58.4 0 20-20 36.8-51.2 48 57.6-4.8 101.6-28.8 101.6-57.6 0-32.8-54.4-59.2-122.4-59.2z" fill="#FFFFFF" p-id="8299"></path><path d="M756 250.4c-36 0-69.6-7.2-95.2-19.2-30.4-14.4-47.2-36-47.2-59.2s16.8-44.8 47.2-59.2c25.6-12 59.2-19.2 95.2-19.2s69.6 7.2 95.2 19.2c30.4 14.4 47.2 36 47.2 59.2s-16.8 44.8-47.2 59.2c-25.6 12.8-59.2 19.2-95.2 19.2z m0-116.8c-29.6 0-57.6 5.6-78.4 15.2-15.2 7.2-24.8 16-24.8 23.2s9.6 16 24.8 23.2c20 9.6 48.8 15.2 78.4 15.2s57.6-5.6 78.4-15.2c15.2-7.2 24.8-16 24.8-23.2s-9.6-16-24.8-23.2c-20-9.6-48.8-15.2-78.4-15.2z" fill="#0D09BA" p-id="8300" data-spm-anchor-id="a313x.search_index.0.i15.3deb3a81eYQ4Vq" class="selected"></path></svg>