<svg t="1726707947240" class="icon" viewBox="0 0 1024 1024" version="1.1" xmlns="http://www.w3.org/2000/svg" p-id="721" width="128" height="128"><path d="M530.132474 574.803371l464.745766-259.302721L530.132474 56.145741 65.382615 315.500651 530.132474 574.803371 530.132474 574.803371zM530.132474 115.15367l359.088378 200.398146-359.088378 200.294792L171.040003 315.500651 530.132474 115.15367 530.132474 115.15367z" fill="#0D09BA" p-id="722"></path><path d="M530.132474 699.253778 994.878241 439.951057 889.220852 439.951057 530.132474 640.350227 171.040003 439.951057 65.382615 439.951057 530.132474 699.253778Z" fill="#0D09BA" p-id="723"></path><path d="M528.789896 829.936119 993.538733 570.631352 887.830179 570.631352 528.789896 771.032568 169.700495 570.631352 64.04413 570.631352 528.789896 829.936119Z" fill="#0D09BA" p-id="724"></path><path d="M890.559337 697.91734 531.468912 898.313439 172.378487 697.91734 66.721099 697.91734 531.468912 957.270203 996.216725 697.91734 890.559337 697.91734Z" fill="#0D09BA" p-id="725"></path></svg>