<svg t="1735889171956" class="icon" viewBox="0 0 1024 1024" version="1.1" xmlns="http://www.w3.org/2000/svg" p-id="3790" width="48" height="48"><path d="M896 747.08v14c-0.32 0.51-0.9 1-0.93 1.52-1.07 18.23-9.84 32.94-21.4 46.24-12.75 14.69-30 20.07-48.47 20.09q-302.46 0.36-604.94 0.11c-8.59 0-17.21-0.39-25.79-1-17.15-1.22-31.24-7.44-42.24-21.85-18.81-24.63-24.45-50.94-14.11-80.21a496.43 496.43 0 0 1 41.81-90c17.09-28.57 37.52-54.53 60.38-78.59 7.62-8 16.18-15.12 24.4-22.55A359.14 359.14 0 0 1 315 497.41a380.64 380.64 0 0 1 78-37.33c18.17-6.3 36.66-11.64 55.81-14 18.39-2.26 36.82-4.41 55.29-5.84 8.52-0.66 17.2 0.29 25.78 0.88 11.65 0.8 23.29 1.76 34.9 3 20.17 2.13 39.76 7 59.13 12.89A391.13 391.13 0 0 1 710 495.05a372.73 372.73 0 0 1 71.79 54.65A488.09 488.09 0 0 1 820 592a365.42 365.42 0 0 1 30.54 43.73c10.46 17.78 19.6 36.48 28.23 55.27 5.46 12 9.23 24.71 13.23 37.25 1.91 6.09 2.69 12.54 4 18.83z m-407.29 33C420.17 765.86 369.62 702 378.2 631.38c7.72-63.38 60.35-114.48 125.72-119.07 38.6-2.71 72.95 9.88 101.06 36.57 26.54 25.18 40.55 57 41.74 93.47 1.09 33.26-9.87 62.91-31.14 88.77s-48.13 41.6-80.48 49H803.05a144.68 144.68 0 0 1 17.27 1.2c5 0.62 10.07 0.23 13.73-3.05a38.09 38.09 0 0 0 13-25.65c0.72-7.93-3.64-14.4-5.86-21.53a347.2 347.2 0 0 0-36.33-79.44c-15.66-25.34-33.63-48.94-55.85-69-12.44-11.21-25.17-22.19-38.44-32.4-23-17.74-48.6-31.35-75.56-42C613.93 500 592.33 493 569.73 490c-17.56-2.27-35.16-4.25-52.79-5.8-6.36-0.56-12.88 0.32-19.29 0.9-13.57 1.22-27.37 1.5-40.62 4.31a477 477 0 0 0-54 14.9c-22.94 7.77-44.36 19.06-64.82 32.06a357 357 0 0 0-46.13 35c-16.73 14.91-32.65 30.64-45.82 48.68-12.68 17.36-24.41 35.49-35.47 53.93a290.34 290.34 0 0 0-30.31 70.31c-1.65 5.81-2.95 12 0.59 17.66 2.68 4.28 5.77 8.3 8.76 12.37 5.67 7.71 12.76 10.63 22.43 7.9a66 66 0 0 1 17.53-2.08q126.75-0.2 253.48-0.09zM602 650.68c0-3 0.61-7.26-0.1-11.3-4-22.59-13.71-42-31.79-56.82-21.67-17.82-46.41-24.73-73.84-20.26-24 3.9-44 15.29-58.94 35-11.33 15-15.87 32.24-16 50.45-0.05 9.12 2.08 18.57 4.93 27.31 9 27.77 28 46.42 55.15 56.74 19.23 7.31 39 7.06 58.59 2.13 17.78-4.47 33.17-13.69 44.58-28.17 12.3-15.68 18.25-33.76 17.42-55.08z" fill="#211915" p-id="3791" data-spm-anchor-id="a313x.search_index.0.i15.33823a812hwmC4" class="selected"></path><path d="M505.74 829.6c-82.48 0-164.52 0-245.38-0.05h-40.1c-7.9 0-16.34-0.33-25.82-1-18.59-1.32-32.13-8.33-42.61-22-19.64-25.72-24.28-52.11-14.18-80.68 11.67-33 25.35-62.47 41.85-90 16.37-27.36 36.15-53.1 60.45-78.68 5.61-5.9 11.83-11.4 17.85-16.72q3.3-2.91 6.58-5.85c14.33-13 30.82-25.24 50.4-37.53a382.94 382.94 0 0 1 78.07-37.38c22.06-7.65 39.31-12 55.92-14 20.49-2.52 37.74-4.47 55.31-5.83 7-0.55 14.18 0 21.13 0.53l4.73 0.34c12.72 0.87 24.14 1.85 34.91 3 17.72 1.87 36 5.85 59.23 12.91a393.66 393.66 0 0 1 86.21 38.1 374.35 374.35 0 0 1 71.89 54.73 488.86 488.86 0 0 1 38.22 42.28 364.19 364.19 0 0 1 30.6 43.66c11.53 19.65 21.14 39.93 28.23 55.4 4.69 10.24 8.16 21.24 11.51 31.87l1.71 5.4a102.61 102.61 0 0 1 2.93 13c0.35 1.94 0.71 3.95 1.12 5.9v14.25l-0.08 0.12a6 6 0 0 1-0.39 0.53 1.92 1.92 0 0 0-0.46 0.75c-0.94 15.93-7.77 30.71-21.52 46.54-11.66 13.42-28.09 20.24-48.85 20.26-106.04 0.11-213.11 0.15-319.46 0.15z m4.52-389.07c-2 0-4.08 0.06-6.1 0.22-17.56 1.36-34.79 3.32-55.27 5.83-16.54 2-33.72 6.34-55.71 14a381.78 381.78 0 0 0-77.87 37.29c-19.53 12.26-36 24.5-50.26 37.42-2.18 2-4.38 3.91-6.59 5.86-6 5.3-12.2 10.79-17.78 16.66-24.26 25.52-44 51.2-60.33 78.51a492.78 492.78 0 0 0-41.76 89.85c-10 28.23-5.38 54.32 14 79.74 10.29 13.48 23.59 20.36 41.88 21.66 9.45 0.67 17.88 1 25.75 1h40.1c185.13 0.05 376.56 0.11 564.84-0.12 20.45 0 36.63-6.72 48.09-19.91 13.6-15.66 20.36-30.25 21.28-45.95a2.44 2.44 0 0 1 0.68-1.32l0.25-0.32v-13.8c-0.4-2-0.76-3.94-1.11-5.87a101.26 101.26 0 0 0-2.9-12.86c-0.57-1.79-1.14-3.6-1.71-5.4-3.35-10.6-6.8-21.57-11.47-31.75-7.07-15.45-16.67-35.7-28.19-55.32a363.84 363.84 0 0 0-30.49-43.67 490.32 490.32 0 0 0-38.15-42.2 373.79 373.79 0 0 0-71.7-54.58 392.54 392.54 0 0 0-86-38c-23.18-7-41.39-11-59-12.87-10.76-1.14-22.16-2.11-34.87-3l-4.74-0.35c-4.89-0.37-9.9-0.75-14.87-0.75zM205.59 783.74c-6.39 0-11.73-3-16.2-9.09l-1.57-2.12c-2.45-3.31-5-6.74-7.21-10.29-3.67-5.85-2.33-12.13-0.65-18a291.73 291.73 0 0 1 30.36-70.44c12.12-20.2 23.73-37.86 35.49-54 11.37-15.57 25.52-30.61 45.89-48.76a360.87 360.87 0 0 1 46.2-35c23-14.59 44.19-25.09 64.93-32.11A477.08 477.08 0 0 1 456.92 489c9.7-2.05 19.83-2.77 29.63-3.47 3.63-0.26 7.38-0.52 11.06-0.85l3.3-0.32c5.29-0.51 10.76-1.05 16.07-0.58 16.54 1.45 33.82 3.35 52.81 5.81 19.61 2.53 39.77 8.17 65.37 18.29 29.06 11.48 53.81 25.24 75.68 42.07 11.57 8.9 23.79 19.21 38.47 32.43 20.12 18.13 38.42 40.72 55.94 69.07A348.75 348.75 0 0 1 841.63 731c0.65 2.1 1.51 4.18 2.35 6.2 2 4.83 4 9.82 3.53 15.52a38.52 38.52 0 0 1-13.13 26c-3.24 2.9-7.85 3.94-14.12 3.17a142.76 142.76 0 0 0-17.21-1.2H530.66l4.33-1c33.17-7.55 59.4-23.51 80.2-48.8 21.65-26.32 32.09-56.07 31-88.44-1.19-36.83-15.19-68.16-41.55-93.21-28.32-26.87-62.18-39.13-100.69-36.43-64.77 4.55-117.45 54.44-125.25 118.63-8.34 68.53 40 133.61 110.11 148.15l4.77 1h-58.86c-67.18 0-136.64 0-205 0.09a64.45 64.45 0 0 0-17.39 2.07 25 25 0 0 1-6.74 0.99z m307.06-299.19c-3.88 0-7.81 0.38-11.65 0.76l-3.3 0.31c-3.69 0.33-7.45 0.6-11.08 0.86-9.76 0.69-19.86 1.41-29.49 3.45a475.15 475.15 0 0 0-54 14.89c-20.66 7-41.83 17.46-64.71 32a358.61 358.61 0 0 0-46.07 34.95c-20.32 18.1-34.43 33.09-45.75 48.6-11.75 16.08-23.34 33.71-35.44 53.89a291 291 0 0 0-30.26 70.19c-1.62 5.71-2.91 11.74 0.54 17.25 2.2 3.52 4.72 6.93 7.16 10.22l1.57 2.13c5.77 7.84 12.73 10.29 21.89 7.71a65.69 65.69 0 0 1 17.67-2.1c68.33-0.1 137.79-0.09 205-0.09h49.47c-68.2-16.4-114.72-80.66-106.49-148.25a137.24 137.24 0 0 1 126.17-119.5c38.8-2.73 72.92 9.62 101.45 36.69 26.59 25.24 40.69 56.81 41.89 93.82 1.06 32.62-9.45 62.6-31.26 89.1-20.08 24.41-45.18 40.19-76.63 48.15H803.05a142.74 142.74 0 0 1 17.33 1.21c6 0.72 10.32-0.23 13.34-2.93a37.58 37.58 0 0 0 12.8-25.32c0.49-5.45-1.44-10.11-3.47-15-0.84-2-1.71-4.15-2.38-6.3a348.17 348.17 0 0 0-36.27-79.33c-17.47-28.26-35.71-50.78-55.76-68.85-14.66-13.2-26.87-23.49-38.41-32.38-21.79-16.77-46.47-30.48-75.44-41.93-25.51-10.08-45.6-15.71-65.13-18.23-19-2.45-36.24-4.35-52.77-5.81-1.4-0.11-2.82-0.16-4.24-0.16z m0.11 253.45a87.82 87.82 0 0 1-31.55-5.74c-27.93-10.62-46.59-29.81-55.45-57-3.38-10.38-5-19.37-4.95-27.47 0.11-19.76 5.52-36.83 16.07-50.75 14.66-19.32 34.59-31.15 59.26-35.17 27.41-4.45 52.38 2.4 74.24 20.37 17.24 14.18 27.7 32.86 32 57.12a37.61 37.61 0 0 1 0.22 8.5c-0.06 1-0.11 2-0.11 2.88 0.88 21.2-4.85 39.31-17.5 55.37-11.13 14.12-26.21 23.66-44.85 28.34a111.74 111.74 0 0 1-27.38 3.55z m-0.69-176.49a98.17 98.17 0 0 0-15.77 1.3c-24.4 4-44.13 15.67-58.62 34.78-10.42 13.74-15.76 30.62-15.87 50.15-0.05 8 1.56 16.88 4.9 27.16 8.76 26.94 27.22 45.92 54.86 56.42 17.86 6.79 36.93 7.48 58.29 2.11 18.41-4.63 33.32-14 44.3-28 12.5-15.87 18.16-33.77 17.29-54.72 0-0.89 0-1.89 0.11-2.95a36.65 36.65 0 0 0-0.2-8.27c-4.23-24-14.57-42.5-31.62-56.52-17.35-14.3-36.74-21.48-57.67-21.48z" fill="#333333" p-id="3792"></path><path d="M128 423.08v-59c3.29-8.92 7.63-17.33 14.54-23.91 9.68-9.22 19.6-18.2 29.79-26.84 22.26-18.88 46.79-34.5 72.35-48.42 22.1-12 45.28-21.61 68.92-30.31 27.06-9.95 54.11-19.86 82.35-25.85 18.18-3.86 36.56-6.87 54.95-9.55 13.48-2 27.1-3.69 40.69-3.93 27.65-0.49 55.35-1.15 82.89 2.78 12.79 1.83 25.76 2.74 38.42 5.23 29.24 5.77 58 13.17 86.05 23.63 30.54 11.4 61.44 21.93 89.43 39 15.16 9.26 30.16 18.84 44.74 29 11 7.64 21.44 16.16 31.76 24.73a167.45 167.45 0 0 1 17 16.54c7.18 7.94 11.44 17.56 14.07 27.9v59c-0.36 2.34-0.61 4.7-1.09 7-3.28 15.84-8.73 30.83-19.15 43.4-10.2 12.31-22.61 20.77-39.61 20.65-31.32-0.21-62.65 0-94-0.15-3.49 0-7.46-0.46-10.39-2.14-8.87-5.1-17.46-10.7-25.89-16.51-4-2.73-8.27-5.78-10.79-9.72-8-12.43-10.72-26.64-11-41.16-0.4-20.48-0.11-41-0.1-61.47 0-3.18-0.13-6.45-3.65-7.74-11.3-4.16-22.52-8.58-34-12.08-21.67-6.6-43.52-12.55-66.12-15.15-14.16-1.62-28.29-4.34-42.48-4.71-27.6-0.73-55.28-1.2-82.67 3.75-14 2.53-28.22 3.92-41.84 7.67-21 5.79-41.42 13.45-62.28 19.67-5.39 1.6-5.94 4.42-6 8.89-0.23 23.09 0 46.22-1.27 69.26-0.54 9.53-3.77 19.16-7.22 28.2-4 10.51-13.63 16.53-21.9 23.56-8.92 7.58-19 10-30.51 9.9-29.31-0.37-58.64-0.07-88-0.21a36.54 36.54 0 0 1-10.54-1.8c-22.09-6.85-36.32-23-47.28-42.09-4.64-8.24-6.83-17.96-10.17-27.02z m661.64 22c15.17 0 30.33-0.09 45.5 0.08 2.94 0 4.49-1 5.72-3.51a61.75 61.75 0 0 0 6.08-26c0.23-13.49-0.29-27 0.2-40.49 0.26-7.06-1.12-11.84-7.53-16.31-18.89-13.23-36.78-27.85-55.61-41.1-15.73-11.07-32.08-21.29-48.49-31.35-10.57-6.47-21.26-13.14-32.71-17.69-31.51-12.54-63.86-22.68-97.55-27.58-21.71-3.16-43.5-6.59-65.37-7.73-25.26-1.32-50.7-1.14-75.87 2.7-18.73 2.87-37.61 5.09-56.05 9.27-32 7.24-63 17.75-92.37 32.59-17.21 8.7-34.46 17.4-51.07 27.18-17.26 10.17-34.07 21.19-50.5 32.67-11.92 8.33-23 17.93-34.23 27.19a8.64 8.64 0 0 0-2.66 5.86c-0.22 14.83-0.13 29.66-0.09 44.5a8.76 8.76 0 0 0 0.62 3.83c3.74 7.55 7.72 15 11.42 22.56 1.39 2.84 3.36 3.41 6.33 3.4 29-0.11 58-0.07 87-0.07 5.95 0 16.56-8.55 17.54-14.45a74.7 74.7 0 0 0 1-11.76c0.1-19.83 0-39.66 0.07-59.49a40.65 40.65 0 0 1 0.53-5.39c1.68-12 7-22.43 14.82-31.42 4-4.66 8.75-9.66 14.23-12 14.65-6.22 29.73-11.56 44.92-16.38 21-6.65 42.24-12.25 64.11-15.14 15.75-2.07 31.48-5.23 47.28-5.71 28.43-0.86 57-1.46 85.18 3.73 16.52 3 33.24 5.31 49.45 9.52 19 4.93 37.68 11.35 56.32 17.65a104.79 104.79 0 0 1 22.18 10c18.74 11.78 28.23 29 28 51.39-0.17 17 0.34 34-0.16 51-0.33 11.3 5.67 19.23 12.35 27 0.93 1.09 3.25 1.37 4.93 1.38 14.84 0.12 29.65 0.07 44.48 0.07z" fill="#E72418" p-id="3793"></path><path d="M285 494.71h-0.92c-17.63-0.23-35.57-0.2-52.91-0.18h-35a37 37 0 0 1-10.69-1.82c-19.31-6-34.42-19.44-47.57-42.32-3.28-5.72-5.38-12.22-7.4-18.51-0.91-2.84-1.86-5.78-2.9-8.59v-59.37c3.94-10.66 8.6-18.32 14.67-24.1 10-9.52 20-18.55 29.81-26.86 20-17 43.7-32.83 72.43-48.48 19.22-10.46 41.14-20.1 69-30.34 26.5-9.74 53.9-19.82 82.42-25.87 15.79-3.35 33.26-6.39 55-9.56 13-1.89 26.94-3.68 40.75-3.93l3-0.05c26.24-0.47 53.37-1 79.94 2.84 4.69 0.67 9.49 1.23 14.13 1.76 8 0.93 16.29 1.89 24.32 3.47 32.5 6.41 60.67 14.15 86.13 23.65l10.68 4c26.58 9.82 54.06 20 78.83 35.11 17 10.35 31.59 19.83 44.77 29 11.11 7.71 21.79 16.46 31.79 24.76a166.19 166.19 0 0 1 17.1 16.58c6.59 7.29 11.23 16.49 14.18 28.12v59.12c-0.12 0.82-0.22 1.56-0.32 2.3-0.22 1.58-0.45 3.22-0.78 4.82-3.84 18.54-10 32.4-19.25 43.61-11.87 14.32-24.61 20.94-40 20.83-16.78-0.11-33.84-0.1-50.33-0.09-14.3 0-29.09 0-43.63-0.06-4.54 0-8.13-0.77-10.64-2.21-7.92-4.55-16.16-9.8-25.92-16.52-3.49-2.4-8.26-5.69-10.93-9.87-7.14-11.13-10.76-24.68-11.09-41.42-0.28-14.52-0.22-29.29-0.15-43.58v-17.9c0-3.43-0.24-6.14-3.32-7.27q-3.79-1.39-7.57-2.82c-8.61-3.21-17.51-6.54-26.43-9.26-20.67-6.29-43-12.47-66-15.12-4.52-0.52-9.1-1.15-13.53-1.77-9.47-1.32-19.27-2.69-28.92-2.94-29.54-0.78-56.15-1-82.56 3.74-4.53 0.82-9.16 1.54-13.65 2.22-9.33 1.43-19 2.91-28.15 5.44-11.82 3.26-23.68 7.19-35.15 11-8.86 2.93-18 6-27.12 8.68-5.19 1.54-5.59 4.21-5.63 8.42q-0.07 8.32-0.11 16.65c-0.08 17.26-0.16 35.11-1.16 52.63-0.54 9.62-3.81 19.31-7.25 28.35-3.3 8.65-10.41 14.36-17.29 19.87-1.57 1.27-3.2 2.58-4.76 3.9-8.07 6.75-17.59 9.94-29.92 9.94z m-37.88-1.19c12.27 0 24.69 0 37 0.19 12.55 0.16 22.14-2.95 30.18-9.78 1.56-1.33 3.2-2.64 4.78-3.91 6.77-5.43 13.77-11 17-19.45 3.42-9 6.66-18.57 7.2-28.05 1-17.49 1.07-35.32 1.15-52.58q0-8.32 0.11-16.65c0.05-4.4 0.53-7.64 6.35-9.37 9.08-2.71 18.23-5.74 27.09-8.67 11.48-3.8 23.35-7.73 35.2-11 9.23-2.55 18.91-4 28.26-5.47 4.48-0.68 9.11-1.39 13.62-2.21 26.5-4.79 53.16-4.54 82.77-3.76 9.7 0.25 19.53 1.62 29 2.95 4.42 0.61 9 1.25 13.5 1.77 23.13 2.65 45.48 8.85 66.2 15.16 8.95 2.72 17.86 6.05 26.49 9.28l7.56 2.81c4 1.47 4 5.36 4 8.21v17.91c-0.07 14.28-0.13 29 0.15 43.55 0.33 16.55 3.9 29.93 10.93 40.9 2.37 3.71 6.23 6.54 10.65 9.58 9.74 6.71 18 11.94 25.86 16.48 2.36 1.36 5.78 2.06 10.15 2.08 14.53 0.08 29.32 0.07 43.61 0.06 16.5 0 33.57 0 50.35 0.09h0.35c15 0 27.31-6.52 38.88-20.48 9.18-11.08 15.23-24.8 19-43.18 0.33-1.56 0.55-3.18 0.77-4.75 0.1-0.74 0.2-1.49 0.32-2.23v-58.85c-2.92-11.45-7.48-20.49-13.94-27.64a165.25 165.25 0 0 0-17-16.48c-10-8.29-20.64-17-31.72-24.71-13.17-9.14-27.79-18.61-44.72-29-24.69-15.08-52.13-25.22-78.66-35l-10.68-4c-25.4-9.49-53.53-17.21-86-23.61-8-1.57-16.25-2.53-24.24-3.45-4.65-0.54-9.46-1.1-14.16-1.77-26.49-3.79-53.58-3.3-79.78-2.83l-3 0.05c-13.75 0.25-27.64 2-40.61 3.92-21.71 3.17-39.16 6.2-54.93 9.55-28.44 6-55.81 16.1-82.28 25.83-27.8 10.23-49.68 19.85-68.85 30.28-28.67 15.61-52.31 31.43-72.26 48.36-9.78 8.3-19.8 17.32-29.77 26.82-5.94 5.66-10.52 13.17-14.39 23.64V423c1 2.81 2 5.73 2.88 8.55 2 6.24 4.09 12.69 7.32 18.32 13 22.65 28 36 47 41.86a35.74 35.74 0 0 0 10.39 1.78c11.68 0.06 23.56 0 35 0z m588.18-47.86h-0.14c-11.24-0.12-22.68-0.11-33.73-0.09h-22c-11.24 0-22.86 0-34.29-0.07-1.49 0-4.16-0.22-5.3-1.56-6.76-7.86-12.8-15.87-12.47-27.34 0.3-10.1 0.24-20.38 0.18-30.33 0-6.77-0.09-13.76 0-20.65 0.23-22.09-9.11-39.24-27.76-50.95-5.89-3.7-12.9-6.87-22.07-10l-3.77-1.27c-17.11-5.79-34.79-11.77-52.51-16.37-11.55-3-23.57-5-35.2-7-4.66-0.79-9.49-1.61-14.22-2.48-27.16-5-54.59-4.65-85.07-3.73-11.25 0.34-22.66 2.07-33.69 3.74-4.44 0.68-9 1.37-13.54 2-19.1 2.51-39.44 7.32-64 15.12-16.89 5.36-31.57 10.71-44.88 16.37-5.24 2.22-9.85 7-14 11.85-8.18 9.45-13.13 19.93-14.71 31.15v0.33a38.11 38.11 0 0 0-0.48 5v22.78c0 12 0 24.47-0.06 36.71a75.56 75.56 0 0 1-1 11.84c-1 6-11.77 14.87-18 14.87h-19.86c-22.07 0-44.89 0-67.33 0.07h-0.09c-3 0-5.2-0.63-6.69-3.68-2-4.11-4.14-8.25-6.19-12.25-1.73-3.37-3.52-6.85-5.23-10.3a9.22 9.22 0 0 1-0.67-4.06v-5.7c0-12.72-0.08-25.87 0.11-38.8a9.12 9.12 0 0 1 2.84-6.24c2.21-1.82 4.42-3.66 6.62-5.49 8.88-7.39 18-15 27.65-21.73 18-12.57 34.52-23.26 50.53-32.69 16.39-9.66 33.68-18.39 50.4-26.84l0.7-0.36c27.81-14.06 58.92-25 92.48-32.63 13.9-3.15 28.29-5.22 42.2-7.23 4.63-0.67 9.26-1.33 13.88-2 22.22-3.4 46.36-4.26 76-2.71 19.65 1 39.52 3.94 58.74 6.76l6.68 1c30.39 4.42 61.42 13.2 97.66 27.62 11 4.39 21.45 10.78 31.53 17l1.25 0.77c18.36 11.25 33.63 20.89 48.52 31.36 9.19 6.47 18.3 13.37 27.11 20 9.26 7 18.83 14.26 28.51 21 6.78 4.73 8 9.91 7.74 16.74-0.28 7.69-0.23 15.52-0.18 23.09 0 5.7 0.08 11.6 0 17.39a62.46 62.46 0 0 1-6.13 26.25 5.89 5.89 0 0 1-6.1 3.74z m-22.21-1.1c7.34 0 14.75 0 22.08 0.1 2.75 0.08 4.1-0.81 5.27-3.23a61.42 61.42 0 0 0 6-25.83c0.1-5.78 0.06-11.67 0-17.36-0.05-7.59-0.1-15.43 0.18-23.13 0.24-6.66-0.88-11.4-7.32-15.89-9.69-6.77-19.27-14-28.53-21-8.81-6.67-17.91-13.56-27.09-20-14.86-10.46-30.12-20.09-48.46-31.33l-1.25-0.77c-10-6.16-20.43-12.53-31.38-16.88-36.17-14.39-67.13-23.15-97.44-27.55l-6.68-1c-19.19-2.82-39-5.73-58.64-6.75-29.56-1.54-53.63-0.69-75.78 2.7-4.62 0.71-9.26 1.37-13.89 2-13.89 2-28.26 4.07-42.12 7.21-33.48 7.58-64.51 18.53-92.25 32.55l-0.7 0.36c-16.71 8.44-34 17.17-50.34 26.81-16 9.41-32.49 20.1-50.47 32.65-9.56 6.68-18.72 14.3-27.58 21.67q-3.3 2.76-6.62 5.5a8.16 8.16 0 0 0-2.48 5.48c-0.19 12.92-0.15 26.07-0.11 38.78v5.71a8.47 8.47 0 0 0 0.56 3.61c1.71 3.45 3.5 6.92 5.23 10.29 2.06 4 4.18 8.16 6.2 12.27 1.29 2.64 3.09 3.15 5.87 3.12 22.45-0.09 45.27-0.08 67.34-0.07h19.65c5.78 0 16.13-8.52 17-14a73.55 73.55 0 0 0 1-11.68c0.07-12.24 0.06-24.68 0.06-36.71v-22.78a38.07 38.07 0 0 1 0.49-5.14v-0.32c1.61-11.42 6.63-22.08 14.95-31.68 4.27-4.93 9-9.81 14.4-12.11 13.34-5.67 28-11 45-16.4 24.65-7.82 45-12.64 64.19-15.16 4.51-0.6 9.1-1.29 13.53-2 11.06-1.68 22.5-3.41 33.81-3.76 30.54-0.92 58-1.28 85.28 3.74 4.73 0.87 9.55 1.69 14.21 2.49 11.65 2 23.69 4 35.28 7 17.76 4.61 35.46 10.6 52.58 16.39l3.77 1.28c9.24 3.12 16.32 6.32 22.28 10.06 19 11.91 28.47 29.35 28.23 51.81-0.07 6.88 0 13.87 0 20.64 0.06 9.95 0.12 20.24-0.18 30.36-0.32 11.11 5.6 19 12.23 26.66 0.64 0.75 2.34 1.2 4.55 1.21 11.42 0.08 23 0.07 34.28 0.07h33.63z" fill="#E72418" p-id="3794"></path></svg>