<svg t="1735889339085" class="icon" viewBox="0 0 1024 1024" version="1.1" xmlns="http://www.w3.org/2000/svg" p-id="9729" width="48" height="48"><path d="M734.7 129.7H467.1c-6.4-37.6-39.1-66.3-78.4-66.3h-91.2c-43.9 0-79.6 35.7-79.6 79.6v2.6c-1.8 0.4-3.5 1-5.2 1.8-59.8 29.3-98.4 91-98.4 157.3v480.8c0 96.5 78.5 175 175 175h445.3c96.5 0 175-78.5 175-175V304.7c0.1-96.5-78.4-175-174.9-175z m-473 13.3c0-19.7 16.1-35.8 35.8-35.8h91.2c19.7 0 35.8 16.1 35.8 35.8v0.8c-1.6 3.3-2.6 7-2.6 10.9 0 3.9 1 7.6 2.6 10.9v589.2c0 19.7-16.1 35.8-35.8 35.8h-91.2c-19.7 0-35.8-16.1-35.8-35.8V143z m597.9 642.6c0 68.9-56 124.9-124.9 124.9H289.3c-68.9 0-124.9-56-124.9-124.9V304.7c0-40.7 20.5-79 53.5-102.3v552.4c0 43.9 35.7 79.6 79.6 79.6h91.2c43.9 0 79.6-35.7 79.6-79.6v-575h266.3c68.9 0 124.9 56 124.9 124.9v480.9z" fill="#2c2c2c" p-id="9730"></path><path d="M751 269H576.4c-19.3 0-35 15.7-35 35v84.4c0 19.3 15.7 35 35 35H751c19.3 0 35-15.7 35-35V304c0-19.3-15.7-35-35-35z m-2.5 116.8H578.9v-79.3h169.5v79.3zM588.3 545.1H562c-5.1 0-9.2 4.2-9.2 9.2v26.3c0 5.1 4.2 9.2 9.2 9.2h26.3c5.1 0 9.2-4.2 9.2-9.2v-26.3c0-5-4.1-9.2-9.2-9.2zM676.9 545.1h-26.3c-5.1 0-9.2 4.2-9.2 9.2v26.3c0 5.1 4.2 9.2 9.2 9.2h26.3c5.1 0 9.2-4.2 9.2-9.2v-26.3c0-5-4.1-9.2-9.2-9.2zM765.5 545.1h-26.3c-5.1 0-9.2 4.2-9.2 9.2v26.3c0 5.1 4.2 9.2 9.2 9.2h26.3c5.1 0 9.2-4.2 9.2-9.2v-26.3c0-5-4.2-9.2-9.2-9.2zM588.3 643H562c-5.1 0-9.2 4.2-9.2 9.2v26.3c0 5.1 4.2 9.2 9.2 9.2h26.3c5.1 0 9.2-4.2 9.2-9.2v-26.3c0-5.1-4.1-9.2-9.2-9.2zM676.9 643h-26.3c-5.1 0-9.2 4.2-9.2 9.2v26.3c0 5.1 4.2 9.2 9.2 9.2h26.3c5.1 0 9.2-4.2 9.2-9.2v-26.3c0-5.1-4.1-9.2-9.2-9.2zM765.5 643h-26.3c-5.1 0-9.2 4.2-9.2 9.2v26.3c0 5.1 4.2 9.2 9.2 9.2h26.3c5.1 0 9.2-4.2 9.2-9.2v-26.3c0-5.1-4.2-9.2-9.2-9.2zM588.3 740.8H562c-5.1 0-9.2 4.2-9.2 9.2v26.3c0 5.1 4.2 9.2 9.2 9.2h26.3c5.1 0 9.2-4.2 9.2-9.2V750c0-5.1-4.1-9.2-9.2-9.2zM676.9 740.8h-26.3c-5.1 0-9.2 4.2-9.2 9.2v26.3c0 5.1 4.2 9.2 9.2 9.2h26.3c5.1 0 9.2-4.2 9.2-9.2V750c0-5.1-4.1-9.2-9.2-9.2zM765.5 740.8h-26.3c-5.1 0-9.2 4.2-9.2 9.2v26.3c0 5.1 4.2 9.2 9.2 9.2h26.3c5.1 0 9.2-4.2 9.2-9.2V750c0-5.1-4.2-9.2-9.2-9.2z" fill="#2c2c2c" p-id="9731"></path></svg>