<svg t="1726711431219" class="icon" viewBox="0 0 1024 1024" version="1.1" xmlns="http://www.w3.org/2000/svg" p-id="25327" width="128" height="128"><path d="M703.994052 128.018547l0-95.996259c0-17.624385-15.562425-31.998753-34.748374-31.998753l-250.487711 0c-19.186972 0-34.748374 14.374368-34.748374 31.998753l0 95.996259c-143.054994 30.373744-255.986953 114.618366-255.986953 191.989447l0 671.96767c0 17.749228 15.49898 31.998753 34.623531 31.998753l762.712326 0c19.123527 0 34.623531-14.249525 34.623531-31.998753l0-671.96767C959.981005 242.636914 847.049046 158.392292 703.994052 128.018547zM448.006076 64.021042l191.99047 0 0 63.997506-191.99047 0L448.006076 64.021042zM895.983499 959.977935 192.019123 959.977935l0-127.993988 703.965399 0L895.984523 959.977935zM895.983499 767.986441 192.019123 767.986441l0-127.992965 703.965399 0L895.984523 767.986441zM895.983499 575.996994 192.019123 575.996994l0-127.993988 703.965399 0L895.984523 575.996994zM895.983499 384.006524 192.019123 384.006524l0-63.997506c0-29.123265 72.465356-101.182369 205.271948-129.368287 0.031722-0.007163 0.062422-0.01535 0.094144-0.021489l0 1.396812 293.235261 0 0-1.396812c0.031722 0.007163 0.062422 0.01535 0.094144 0.021489 132.805569 28.185918 205.270925 100.245022 205.270925 129.368287L895.985546 384.006524z" fill="#0D09BA" p-id="25328"></path></svg>