<svg t="1735889657171" class="icon" viewBox="0 0 1024 1024" version="1.1" xmlns="http://www.w3.org/2000/svg" p-id="21148" width="48" height="48"><path d="M746.666667 85.333333c64.8 0 117.333333 52.533333 117.333333 117.333334v618.666666c0 64.8-52.533333 117.333333-117.333333 117.333334H277.333333c-64.8 0-117.333333-52.533333-117.333333-117.333334V202.666667c0-64.8 52.533333-117.333333 117.333333-117.333334h469.333334zM597.333333 778.666667H426.666667a32 32 0 0 0 0 64h170.666666a32 32 0 0 0 0-64z m149.333334-629.333334H277.333333a53.333333 53.333333 0 0 0-53.333333 53.333334v480h576V202.666667a53.333333 53.333333 0 0 0-53.333333-53.333334z" fill="#2c2c2c" p-id="21149"></path></svg>