<svg t="1726709643172" class="icon" viewBox="0 0 1024 1024" version="1.1" xmlns="http://www.w3.org/2000/svg" p-id="4489" width="128" height="128"><path d="M938.88 498.176C932.672 229.568 826.496 43.904 696.128 43.904a128 128 0 0 0-62.4 17.6 128 128 0 0 0-62.4-17.6A128 128 0 0 0 508.8 61.44a128 128 0 0 0-62.4-17.6c-23.168 0-45.44 7.168-66.688 19.84a144.064 144.064 0 0 0-72-19.84c-76.48 0-144.64 63.936-189.248 170.88V0H64.256v524.16c0.256 281.856 109.12 447.104 243.456 447.104 26.048 0 51.072-6.4 74.624-18.432 20.48 11.712 41.856 18.432 64 18.432a128 128 0 0 0 62.464-17.6 128 128 0 0 0 62.464 17.6c21.568 0 42.432-6.528 62.4-17.6a128 128 0 0 0 62.4 17.6c76.48 0 144.64-53.76 189.248-151.808v202.88h54.208V498.176h-0.64z m-631.168 400.832c-104.512 0-189.248-133.184-189.248-375.616 0-242.368 84.736-407.168 189.248-407.168 104.512 0 189.248 164.8 189.248 407.168 0 242.432-84.736 375.616-189.248 375.616zM448 898.88c62.4-74.176 103.296-202.88 103.296-375.424 0-179.776-44.288-324.672-111.104-406.528 2.112-0.256 4.16-0.704 6.272-0.704 104.512 0 189.248 164.8 189.248 407.168 0 241.216-83.904 374.144-187.712 375.488z m123.328 0.128h-0.448c71.232-89.28 119.04-188.8 119.04-375.616 0-186.688-47.808-317.952-119.04-407.168h0.448c104.512 0 189.248 164.8 189.248 407.168 0 242.432-84.736 375.616-189.248 375.616z m124.8 0H695.68c71.168-89.28 119.04-188.8 119.04-375.616 0-186.688-47.872-317.952-119.04-407.168h0.384c104.512 0 189.248 164.8 189.248 407.168 0 242.432-84.736 375.616-189.248 375.616z" fill="#0D09BA" p-id="4490" data-spm-anchor-id="a313x.manage_type_mylikes.0.i13.17e93a81buXEOq" class="selected"></path><path d="M303.168 280.32c-45.056 0-81.6 107.456-81.6 240 0 132.48 36.48 240 81.6 240 45.056 0 81.6-107.52 81.6-240 0-132.544-36.544-240-81.6-240z m0 392.32c-18.688 0-33.92-68.16-33.92-152.32 0-84.224 15.232-152.448 33.92-152.448 18.688 0 33.92 68.224 33.92 152.384 0 84.224-15.232 152.448-33.92 152.448z" fill="#0D09BA" p-id="4491" data-spm-anchor-id="a313x.manage_type_mylikes.0.i14.17e93a81buXEOq" class="selected"></path></svg>