<svg t="1726711186644" class="icon" viewBox="0 0 1024 1024" version="1.1" xmlns="http://www.w3.org/2000/svg" p-id="16802" width="128" height="128"><path d="M780.8 281.6V0H12.8v1024h998.4V281.6h-230.4z m91.3664 51.2l-10.3936 25.6h-167.7312l-10.24-25.6h188.4416zM550.4 972.8H64V51.2h665.6v230.4h-51.2V102.4H140.8v665.6h409.6v204.8z m0-256H192V153.6h435.2v128h-76.8v435.2z m409.6 256H601.6V332.8h28.16l27.0848 76.8h241.8432l27.3152-76.8H960v640z m-230.4-51.2h102.4v-51.2h-102.4v51.2z m-342.1184 10.112a70.4 70.4 0 1 0-70.4-70.4 70.4768 70.4768 0 0 0 70.4 70.4z m0-89.6a19.2 19.2 0 1 1-19.2 19.2 19.2256 19.2256 0 0 1 19.2-19.2z" p-id="16803" data-spm-anchor-id="a313x.search_index.0.i23.7ad53a81Q5rpFl" class="selected" fill="#0D09BA"></path></svg>