<svg t="1719888307935" class="icon" viewBox="0 0 1024 1024" version="1.1" xmlns="http://www.w3.org/2000/svg" p-id="6449" width="20" height="20"><path d="M876.557442 210.565089H144.379094c-44.805222 0-81.256563 36.450318-81.256564 81.256563v514.471659c0 44.805222 36.450318 81.256563 81.256564 81.256563h732.178348c44.805222 0 81.256563-36.450318 81.256563-81.256563v-514.471659c0-44.806246-36.450318-81.256563-81.256563-81.256563z m0 55.918473c4.118067 0 8.004735 0.993169 11.44499 2.741965l-377.534164 272.261346-377.53826-272.255203a25.159934 25.159934 0 0 1 11.450109-2.748108h732.177325z m0 565.147839H144.379094c-13.965796 0-25.33809-11.372294-25.338091-25.33809V328.15627l391.427265 282.272898 391.427264-282.282112v478.146255c0 13.965796-11.35796 25.33809-25.33809 25.33809z" fill="#ffffff" p-id="6450"></path></svg>