<svg t="1735889591923" class="icon" viewBox="0 0 1024 1024" version="1.1" xmlns="http://www.w3.org/2000/svg" p-id="19989" width="48" height="48"><path d="M875.6224 269.0048h-55.552V126.3616A49.6128 49.6128 0 0 0 770.5088 76.8H229.888a49.6128 49.6128 0 0 0-49.536 49.5616v142.6432H122.7776A71.68 71.68 0 0 0 51.2 340.5824v400.4608a71.68 71.68 0 0 0 71.5776 71.5776h56.576v110.6176c0 27.3408 22.2208 49.5616 49.536 49.5616H769.536a49.6128 49.6128 0 0 0 49.536-49.5616v-110.6176h56.576A71.68 71.68 0 0 0 947.2 741.0432V340.5824a71.68 71.68 0 0 0-71.5776-71.5776zM243.4048 139.8784H756.992v129.1264H243.4048V139.8784z m512.5888 769.8432H242.4064v-257.28h513.5872v257.28z m128.128-168.704c0 4.7104-3.8144 8.5248-8.4992 8.5248h-56.576v-110.592a49.6128 49.6128 0 0 0-49.536-49.5872H228.864a49.6128 49.6128 0 0 0-49.536 49.5616v110.6176h-56.576a8.5248 8.5248 0 0 1-8.4992-8.4992V340.5824c0-4.6848 3.8144-8.4992 8.4992-8.4992h752.8448c4.6848 0 8.4992 3.84 8.4992 8.4992v400.4608zM224.4096 397.184H196.352a18.0224 18.0224 0 0 0-18.0224 18.0224v28.032c0 9.9584 8.0896 18.0224 18.0224 18.0224h28.032a18.0224 18.0224 0 0 0 18.0224-18.0224v-28.032a18.0224 18.0224 0 0 0-18.0224-18.0224z m129.1264 0h-28.032a18.0224 18.0224 0 0 0-18.0224 18.0224v28.032c0 9.9584 8.064 18.0224 18.0224 18.0224h28.032a18.0224 18.0224 0 0 0 18.0224-18.0224v-28.032a18.0224 18.0224 0 0 0-18.0224-18.0224z" fill="#2c2c2c" p-id="19990"></path></svg>