<svg t="1726709567722" class="icon" viewBox="0 0 1024 1024" version="1.1" xmlns="http://www.w3.org/2000/svg" p-id="1090" width="128" height="128"><path d="M266.0352 593.34656a163.6352 163.6352 0 0 1 163.57376 158.53568l0.08192 5.12-0.08192 5.07904a163.6352 163.6352 0 1 1-163.55328-168.7552zM634.2656 102.4a163.6352 163.6352 0 0 1 119.84896 275.0464l-4.13696 4.3008 0.34816 0.36864-63.24224 63.24224a163.6352 163.6352 0 0 1 189.78816 259.39968l-4.17792 4.3008 0.04096 0.02048-163.6352 163.6352a163.6352 163.6352 0 1 1-227.49184-235.27424l4.21888-3.80928 16.1792-16.1792a163.6352 163.6352 0 0 1-184.6272-265.8304l4.38272-4.01408 197.0176-197.0176-0.24576-0.26624A163.14368 163.14368 0 0 1 634.2656 102.4zM266.0352 634.2656a122.73664 122.73664 0 1 0 0 245.4528 122.73664 122.73664 0 0 0 0-245.47328z m327.31136 0c-28.38528 0-54.51776 9.6256-75.30496 25.8048l-4.38272 3.56352-12.26752 12.288a121.40544 121.40544 0 0 0-30.78144 81.05984 122.73664 122.73664 0 1 0 122.73664-122.73664zM266.0352 675.14368a81.8176 81.8176 0 1 1 0 163.6352 81.8176 81.8176 0 0 1 0-163.6352z m327.2704 0a81.8176 81.8176 0 1 1 0 163.6352 81.8176 81.8176 0 0 1 0-163.6352z m-327.2704 40.91904a40.91904 40.91904 0 1 0 0 81.8176 40.91904 40.91904 0 0 0 0-81.8176z m327.2704 0a40.91904 40.91904 0 1 0 0 81.8176 40.91904 40.91904 0 0 0 0-81.8176z m163.65568-245.47328a122.28608 122.28608 0 0 0-82.78016 32.11264l-3.9936 3.82976 0.26624 0.26624-86.79424 86.81472a163.6352 163.6352 0 0 1 173.32224 163.34848l-0.1024 5.18144-0.24576 5.14048 87.1424-87.1424a122.73664 122.73664 0 0 0-86.81472-209.55136z m-327.2704-122.73664a122.20416 122.20416 0 0 0-75.61216 26.03008l-4.38272 3.60448-11.264 11.264a121.26208 121.26208 0 0 0-31.49824 81.83808 122.73664 122.73664 0 1 0 122.73664-122.73664z m0 40.91904a81.8176 81.8176 0 1 1 0 163.6352 81.8176 81.8176 0 0 1 0-163.6352z m0 40.89856a40.91904 40.91904 0 1 0-0.02048 81.8176 40.91904 40.91904 0 0 0 0-81.8176z m204.53376-286.37184a122.28608 122.28608 0 0 0-82.78016 32.11264l-3.9936 3.82976-2.99008-2.99008 3.23584 3.23584-127.75424 127.75424a163.6352 163.6352 0 0 1 173.3632 163.34848l-0.08192 5.5296-0.28672 5.46816 128.43008-128.4096-0.34816-0.36864a122.73664 122.73664 0 0 0-86.79424-209.5104z" fill="#0D09BA" p-id="1091" data-spm-anchor-id="a313x.manage_type_mylikes.0.i8.17e93a81CojdiN" class="selected"></path></svg>