<svg t="1722566249195" class="icon" viewBox="0 0 1024 1024" version="1.1" xmlns="http://www.w3.org/2000/svg" p-id="13360" width="48" height="48"><path d="M871.673333 770.813333a53.393333 53.393333 0 0 1 0 75.42l-37.713333 37.713334c-27.866667 27.866667-64.52 44.84-108.946667 50.46a264.333333 264.333333 0 0 1-33.213333 2.04c-32.333333 0-67.22-5.46-104.146667-16.32C487.42 890.666667 382 824.226667 290.9 733.1S133.333333 536.586667 103.873333 436.346667c-14.666667-49.94-19.493333-96.153333-14.28-137.333334 5.62-44.426667 22.593333-81.08 50.46-108.946666l37.713334-37.713334a53.393333 53.393333 0 0 1 75.42 0l165.94 165.933334a53.4 53.4 0 0 1 0 75.426666l-37.713334 37.686667c-21.333333 21.333333-0.1 90.413333 60.34 150.846667s129.486667 81.7 150.846667 60.34l37.713333-37.713334a53.4 53.4 0 0 1 75.426667 0zM746.666667 341.333333h64v21.333334a21.333333 21.333333 0 0 0 42.666666 0V277.333333a21.333333 21.333333 0 0 0-42.666666 0v21.333334h-34.4l33.333333-99.92a21.333333 21.333333 0 0 0-40.48-13.493334l-42.666667 128A21.333333 21.333333 0 0 0 746.666667 341.333333z m-96.186667-61.033333c-17.333333 10.24-30.666667 22.58-39.686667 36.666667A83.646667 83.646667 0 0 0 597.333333 362.666667a21.333333 21.333333 0 0 0 21.333334 21.333333h85.333333a21.333333 21.333333 0 0 0 0-42.666667h-58.093333q7.9-13.42 26.28-24.3C706.46 296.78 725.333333 267.526667 725.333333 234.666667a64 64 0 0 0-128 0 21.333333 21.333333 0 0 0 42.666667 0 21.333333 21.333333 0 0 1 42.666667 0c0 22-17.5 36.96-32.186667 45.633333zM960 256a63.726667 63.726667 0 0 0-21.333333 3.653333V192a21.333333 21.333333 0 0 0-42.666667 0v170.666667a21.333333 21.333333 0 0 0 42.666667 0v-42.666667a21.333333 21.333333 0 0 1 42.666666 0v42.666667a21.333333 21.333333 0 0 0 42.666667 0v-42.666667a64.073333 64.073333 0 0 0-64-64z" fill="#211915" p-id="13361"></path></svg>