<svg t="1726711520435" class="icon" viewBox="0 0 1024 1024" version="1.1" xmlns="http://www.w3.org/2000/svg" p-id="28671" width="128" height="128"><path d="M929.45 858.18H898.9v-560c0-16.86-13.68-30.55-30.55-30.55H634.18V135.27c0-16.86-13.68-30.55-30.55-30.55H176c-16.86 0-30.55 13.68-30.55 30.55v722.91h-50.9c-16.86 0-30.55 13.68-30.55 30.55 0 16.86 13.68 30.55 30.55 30.55h834.9c16.86 0 30.55-13.68 30.55-30.55s-13.68-30.55-30.55-30.55zM522.18 491.64c-28.08 0-50.91-22.83-50.91-50.91s22.83-50.91 50.91-50.91 50.91 22.83 50.91 50.91-22.83 50.91-50.91 50.91z m50.91-254.55v104c-15.3-7.85-32.57-12.37-50.91-12.37-18.34 0-35.61 4.52-50.91 12.37V165.82h101.82v71.27zM206.55 858.18V165.82h203.64v274.91c0 51.15 34.52 94.31 81.45 107.66v65.43h61.09v-65.43c46.93-13.35 81.45-56.51 81.45-107.66v-112h203.64v529.45H206.55z" fill="#0D09BA" p-id="28672" data-spm-anchor-id="a313x.search_index.0.i38.7ad53a81Q5rpFl" class=""></path><path d="M685.09 797.09H359.27c-16.86 0-30.55-13.68-30.55-30.55V644.36c0-16.86 13.68-30.55 30.55-30.55h325.82c16.86 0 30.55 13.68 30.55 30.55v122.18c0 16.87-13.69 30.55-30.55 30.55zM389.82 736h264.73v-61.09H389.82V736z" fill="#bb030f" p-id="28673" data-spm-anchor-id="a313x.search_index.0.i37.7ad53a81Q5rpFl" class="selected"></path></svg>