<svg t="1726709529932" class="icon" viewBox="0 0 1024 1024" version="1.1" xmlns="http://www.w3.org/2000/svg" p-id="777" width="128" height="128"><path d="M503.893333 1007.786667c278.289067 0 503.876267-225.621333 503.876267-503.893334C1007.786667 225.604267 782.1824 0 503.893333 0S0 225.604267 0 503.893333C0 782.165333 225.604267 1007.7696 503.893333 1007.7696z m0-34.133334C244.445867 973.653333 34.133333 763.306667 34.133333 503.876267 34.133333 244.445867 244.445867 34.133333 503.893333 34.133333c259.4304 0 469.742933 210.312533 469.742934 469.76 0 259.4304-210.312533 469.742933-469.742934 469.742934z" fill="#0D09BA" p-id="778" data-spm-anchor-id="a313x.manage_type_mylikes.0.i1.17e93a81CojdiN" class="selected"></path><path d="M503.893333 926.634667c233.472 0 422.741333-189.269333 422.741334-422.741334s-189.269333-422.741333-422.741334-422.741333-422.741333 189.269333-422.741333 422.741333 189.269333 422.741333 422.741333 422.741334z m0-34.133334c-214.6304 0-388.608-173.994667-388.608-388.608 0-214.6304 173.9776-388.608 388.608-388.608 214.613333 0 388.608 173.9776 388.608 388.608 0 214.613333-173.994667 388.608-388.608 388.608z" fill="#0D09BA" p-id="779" data-spm-anchor-id="a313x.manage_type_mylikes.0.i2.17e93a81CojdiN" class="selected"></path><path d="M503.893333 845.499733c188.654933 0 341.6064-152.951467 341.6064-341.6064 0-188.672-152.951467-341.623467-341.6064-341.623466-188.672 0-341.623467 152.951467-341.623466 341.623466 0 188.654933 152.951467 341.6064 341.623466 341.6064z m0-34.133333c-169.813333 0-307.490133-137.659733-307.490133-307.473067 0-169.813333 137.659733-307.490133 307.490133-307.490133 169.813333 0 307.473067 137.659733 307.473067 307.490133 0 169.813333-137.659733 307.473067-307.473067 307.473067z" fill="#0D09BA" p-id="780" data-spm-anchor-id="a313x.manage_type_mylikes.0.i3.17e93a81CojdiN" class="selected"></path><path d="M503.893333 764.3648c143.854933 0 260.471467-116.616533 260.471467-260.471467 0-143.872-116.616533-260.488533-260.471467-260.488533-143.872 0-260.488533 116.616533-260.488533 260.488533 0 143.854933 116.616533 260.471467 260.488533 260.471467z m0-34.133333c-125.013333 0-226.3552-101.341867-226.3552-226.338134 0-125.013333 101.341867-226.3552 226.3552-226.3552 124.996267 0 226.338133 101.341867 226.338134 226.3552 0 124.996267-101.341867 226.338133-226.338134 226.338134zM507.204267 975.086933a17.066667 17.066667 0 0 0-2.2016 34.065067c160.085333 10.308267 300.373333-6.912 481.8944-50.5344 15.957333-3.84 17.834667-25.770667 2.7648-32.256-25.156267-10.8544-47.138133-26.094933-68.386134-45.994667-13.704533-12.8512-48.878933-52.002133-52.394666-55.415466a17.066667 17.066667 0 0 0-23.790934 24.4736c2.321067 2.2528 37.768533 41.728 52.8384 55.842133 12.117333 11.349333 24.541867 21.435733 37.649067 30.242133-157.866667 35.413333-285.0816 48.810667-428.373333 39.594667z" fill="#0D09BA" p-id="781" data-spm-anchor-id="a313x.manage_type_mylikes.0.i0.17e93a81CojdiN" class="selected"></path></svg>