<svg t="1726711587163" class="icon" viewBox="0 0 1075 1024" version="1.1" xmlns="http://www.w3.org/2000/svg" p-id="30832" data-spm-anchor-id="a313x.search_index.0.i46.7ad53a81Q5rpFl" width="128" height="128"><path d="M855.6736 790.4c-8.3456 0-16.5888-3.5584-22.7328-9.8048a31.8976 31.8976 0 0 1-9.3184-22.656 31.872 31.872 0 0 1 32.3328-31.3088c17.5104 0 31.744 14.208 31.7696 31.6416 0 17.5104-14.2336 31.9232-32.0512 32.128z m-0.512-102.3744a70.2208 70.2208 0 0 0-50.0992 21.248 69.1712 69.1712 0 0 0-20.0704 49.6896 71.2192 71.2192 0 0 0 70.9632 69.9904h0.3584a69.6832 69.6832 0 0 0 49.8432-21.3248c13.312-13.568 20.4288-31.2832 20.1216-49.8688A70.3232 70.3232 0 0 0 855.136 688.0256z m154.624 48.7168c-31.36 18.8672-32.7168 21.0176-36.352 58.368-0.4352 4.5312 1.2032 9.8816 4.8896 15.9232 4.0192 6.5536 8.192 11.8784 12.672 16.256 5.2736 5.1712 6.2208 8.5248 0.9472 17.1264-4.608 7.5264-7.9104 8.4992-10.24 8.4992a16.384 16.384 0 0 1-6.8096-1.92 43.776 43.776 0 0 0-19.0464-4.6848c-16.5632 0-29.2864 10.9568-40.5248 20.5824l-4.224 3.6096c-5.504 4.608-6.3744 12.6208-7.2192 20.352-0.3328 2.8416-0.64 5.6576-1.2032 8.1664-0.4608 1.9968-0.7168 4.2752-0.9984 6.5536-0.2304 2.2272-0.6656 5.9648-0.7424 6.4512-4.1728 2.56-9.8816 3.456-15.9232 4.4032-1.5872 0.2816-3.2 0.512-4.352 0.768a11.1104 11.1104 0 0 1-3.1232-4.2496c-10.0608-31.616-39.2448-34.3808-58.5728-36.224l-1.6128-0.0512c-6.2208 0-12.1088 3.1488-14.336 4.5056-6.656 4.0448-12.4672 8.5248-17.2032 13.2864-3.5072 3.5328-5.632 3.968-7.1424 3.968-2.048 0-4.736-0.9728-8.448-3.0976-10.3936-6.0416-10.5984-10.5216-7.168-17.664 11.5968-24.3712-1.536-41.0368-13.184-55.7568-2.048-2.6368-4.1472-5.2736-6.0672-7.936-3.1744-4.4032-8.96-5.3504-14.1312-6.2208-1.28-0.2304-2.56-0.4352-3.7632-0.6912a41.4208 41.4208 0 0 0-6.9632-0.8448c-1.2032-0.0768-2.4576-0.128-3.6864-0.3072-15.5648-2.176-18.9184-6.016-18.7904-21.4016a7.3984 7.3984 0 0 1 1.3312-2.0992 9.1648 9.1648 0 0 1 1.536-0.8704c0.64-0.3584 1.3056-0.7168 2.304-1.3568 30.2848-19.1232 31.2832-20.7104 35.328-57.0368 0.5632-5.12-1.024-11.52-4.2496-17.0752a83.5584 83.5584 0 0 0-13.312-17.2544c-5.504-5.4784-5.7344-8.5504-1.1264-14.8992l1.1264-1.536c5.4528-7.552 5.9392-7.8592 8.2688-7.8592 2.6624 0 7.3216 0.9984 13.2352 2.2784 1.536 0.3328 3.1232 0.7424 4.7872 1.152 7.5264 1.9456 15.9232 3.5072 21.76 0.8448 15.2576-7.0144 26.624-15.2576 33.792-24.4992 6.0416-7.8336 6.656-19.2768 7.1936-29.3632l0.256-4.1728c0.3584-6.0416 1.5616-7.3728 7.6288-8.4736l2.7136-0.4864c4.2496-0.768 7.6288-1.3824 9.8304-1.3824 2.3552 0 3.6608 0 8.4736 11.0336 9.9072 22.8352 28.5696 24.9344 45.056 26.8288 4.224 0.4608 8.448 0.9472 12.544 1.792l2.048 0.2048c5.0176 0 9.728-3.6608 13.9008-6.8864 0.9728-0.768 1.92-1.4848 2.816-2.1248 5.376-3.7888 10.5216-7.8592 15.5136-11.776l3.2512-2.5344c18.5088 10.2912 18.3808 10.8288 13.0048 31.9232-3.4304 13.4656 0.6656 22.6816 6.784 34.2272 10.5472 19.8144 26.2912 28.672 52.224 28.672h0.0256c5.9392 0 6.4512 2.2784 6.5024 5.504 0.0768 3.1232 0.9728 6.016 1.7408 8.576 1.792 5.9136 2.3296 7.68-2.9696 10.88z m15.0528 35.6608c3.6864-2.3296 6.9376-4.3264 9.7792-6.0672 22.3744-13.7728 23.3472-16.0768 17.5872-41.0112-0.7424-3.2-1.6128-6.8864-2.5344-11.136l-1.408-6.6816c-5.8368-27.7504-7.04-30.3872-30.976-32.8704a526.08 526.08 0 0 1-13.2096-1.5104c-8.704-1.152-14.2592-3.584-16.9728-7.3728-2.688-3.8144-3.1232-9.856-1.28-18.4576 0.9216-4.5568 1.8176-8.4224 2.6112-11.776 5.5552-24.2176 4.5568-26.4704-17.8944-40.32l-8.8064-5.4784a885.8112 885.8112 0 0 1-8.9088-5.7344c-21.0944-13.696-24.448-13.4144-44.288 2.5344l-8.1408 6.528c-6.4768 5.0432-11.5712 7.5776-19.7888 5.9648-5.4272-1.1008-7.2192-3.9424-10.24-8.6528l-1.3568-2.1248c-2.8928-4.4288-5.2224-8.192-7.2192-11.392C854.4192 565.0176 850.4 558.4896 839.8528 558.4896c-4.864 0-10.752 1.408-20.48 3.712l-7.8336 1.8432c-4.7616 1.1008-8.8064 1.9456-12.288 2.688-24.4736 5.0688-25.4464 7.808-28.3136 35.7888l-0.7168 6.8864 5.6832 0.5888-6.016 1.3824c-2.3808 15.6928-9.2928 17.8688-16.384 17.8688-2.56 0-5.4784-0.384-8.6784-1.1008l-20.992-4.6848c-11.4176-2.4832-19.8656 1.024-25.4464 10.3424-7.296 12.2368-15.0016 24.2432-22.8352 36.1728-5.9648 9.1136-5.6064 17.9968 1.1264 26.3936l3.7632 4.6848c4.736 5.8368 9.216 11.3408 13.0048 17.3312 1.792 2.816 2.432 7.2448 2.8672 11.6224 0.6912 6.7328-2.944 10.1632-11.3664 15.2832l-7.808 4.7104c-23.4752 14.0288-24.704 16.64-18.8928 39.9872 0.8448 3.3024 1.792 7.1424 2.816 11.6736 1.024 4.5824 1.8432 8.5504 2.56 11.9552 4.992 24.32 6.9376 25.9328 34.3296 28.9536l9.1392 1.024c8.5248 0.9984 14.08 3.4048 16.8448 7.3472 2.816 3.968 3.2768 10.0096 1.4336 18.4576-0.4864 2.2528-1.1008 4.5056-1.664 6.7328-1.4848 5.6064-3.0208 11.392-3.2512 17.5104-0.2048 5.3504 1.6896 14.9248 7.7056 19.3536 10.496 7.7056 21.7088 14.592 32.5632 21.248l8.704 5.3504c2.0992 1.28 4.2752 1.9456 6.4 2.5856 0.8704 0.2304 1.792 0.512 2.7392 0.8448l2.3552 0.8448 4.992-2.56c2.56-1.2544 5.12-2.5344 7.4496-4.1984 4.4544-3.1744 8.7552-6.6048 13.0816-9.984l5.0432-3.968c12.8768-10.0096 21.5808-8.7808 30.336 5.2224 1.0496 1.6896 2.1248 3.3792 3.2512 5.0432 2.0992 3.2512 4.2496 6.4768 6.016 9.9328 5.0688 9.9584 12.3136 15.0016 21.504 15.0016 3.2768 0 6.8608-0.6912 10.6496-1.9968 4.3776-1.5616 9.0624-2.432 14.0288-3.3792l3.8912-0.7424c32.512-6.5024 35.584-7.7312 37.7088-29.9008 0.3584-3.712 0.7936-8.192 1.5872-13.5936 2.6112-17.8944 7.8848-21.2736 16.7168-21.2736 3.072 0 6.5792 0.4608 10.8544 1.408l10.2656 2.432c26.0608 6.2976 27.7504 2.56 39.8848-17.2032l4.864-7.8336c2.432-3.8656 4.608-7.1936 6.4768-10.0864 14.1312-21.7856 14.0288-24.2688-1.7152-44.1088-2.2272-2.816-4.8384-6.0928-7.8336-9.984-4.864-6.4-6.912-12.0064-6.0928-16.6656 0.7936-4.5312 4.48-8.9088 10.9568-13.0304z" fill="#bb030f" p-id="30833" data-spm-anchor-id="a313x.search_index.0.i45.7ad53a81Q5rpFl" class="selected"></path><path d="M599.8784 521.472h45.44v-45.5936h-45.44v45.5936zM156.7936 365.5168l-43.6736 17.5616 57.0624 118.1184 41.9072-22.3744-55.296-113.3056z m133.1456 245.9136c0-13.568 0.6912-25.6-0.1536-37.5296-1.7664-25.344-21.4528-45.7472-45.696-48.3328-26.0608-2.816-50.944 12.0064-56.6016 36.8384-3.5328 15.4112-2.2272 31.9488-3.1488 49.024h105.6zM99.0912 334.5408a50.56 50.56 0 0 0 50.5856-51.3792A51.072 51.072 0 0 0 98.272 232.448a51.2768 51.2768 0 0 0-50.7392 51.4816 51.3024 51.3024 0 0 0 51.5584 50.6112z m97.1776-28.2112H500.576V261.6064H196.2688v44.7232zM48.2752 912.4864h377.9584v-45.44H48.2752v45.44zM548.96 426.6496h147.7632c0-64.3328 0.2816-127.3088-0.1792-190.2848-0.128-20.5056-14.3616-34.7136-34.816-35.2512a1441.1264 1441.1264 0 0 0-78.72 0.0512c-18.7904 0.5376-33.5872 14.2592-33.792 32.9472-0.6912 63.9232-0.256 127.872-0.256 192.5376zM108.64 817.92h256.896v-157.0048H108.64v157.0048zM677.8816 153.6c11.1104 5.6064 23.168 9.856 33.1008 17.0752 21.6576 15.744 32.8192 38.0416 32.9472 64.896 0.3584 70.3488 0.2304 140.7488 0.0768 211.1232-0.0512 20.1216-8.6016 28.1856-29.0304 28.4928-6.2976 0.1024-12.5696 0.0256-21.3248 0.0256v56.448c-0.0768 32.4864-5.0432 37.6064-36.8896 38.0416-2.6112 0.0512-5.2224 0.3072-10.2912 0.5888 0 20.224 0.0512 40.4736-0.0512 60.7488-0.0256 5.76 0.512 11.776-0.9472 17.2288-3.2256 12.0576-11.904 18.9952-24.3712 17.8944-13.0816-1.1264-21.248-9.3696-21.7344-22.7584-0.6656-18.3552-0.2304-36.7616-0.256-55.1424v-18.5088c-7.2704 0-12.9024 0.1024-18.5088-0.0256-20.224-0.4352-28.7232-8.832-28.8768-28.8512-0.1536-21.4016-0.0256-42.7776-0.0256-65.6896-8.6528 0-15.872 0.1536-23.0656-0.0256-18.3552-0.4864-26.9568-8.7808-27.136-27.1616-0.2816-30.3616-0.0768-60.7488-0.0768-92.2112H204.8192l27.8272 57.1904c6.2208 12.7232 12.9536 25.2416 18.4832 38.2464 7.68 18.1504 17.6896 31.8464 36.9408 41.4976 32.4352 16.2816 47.2064 46.4384 48.9984 82.5088 0.5632 11.4944 0.1024 23.04 0.1024 37.1712h34.8416c38.2208 0.0768 41.6512 3.4304 41.6512 40.96l0.0256 146.5344v18.816c12.3904 0 23.2704-0.2304 34.1248 0.0512 16.9216 0.4864 25.9328 8.2688 26.2912 24.7296 0.64 30.4384 0.6144 60.928 0.0256 91.3664-0.3328 17.3824-9.2416 25.5232-27.1616 25.5232-140.2112 0.1536-280.448 0.128-420.6592-0.0512-17.2032-0.0256-25.8048-9.0112-25.984-26.6496-0.3072-29.4144-0.3072-58.8288 0.0512-88.2432 0.2048-18.1504 8.96-26.3168 27.5456-26.7008 10.368-0.2048 20.736-0.0256 32.5888-0.0256v-64.256l0.0256-107.136c0.0256-28.3904 6.6048-34.8416 35.5328-34.9184 13.0304-0.0512 26.0608-0.0256 41.216-0.0256-2.6112-31.3344 8.064-60.6464-9.0112-90.9312-25.1904-44.672-45.2096-92.2624-67.9424-138.3168a43.776 43.776 0 0 0-14.0032-15.8976C-2.08 334.1312-14.3424 272.6656 18.7072 226.4064c32.7168-45.7984 94.08-54.4512 140.9024-20.4288 5.4272 3.9424 13.1584 6.6304 19.84 6.656 103.9872 0.4096 207.9744 0.384 311.9616 0.128 5.0688-0.0256 13.4656-1.8176 14.6944-4.9664 11.3408-28.8256 33.9712-44.0832 61.4656-54.1952h110.3104z" fill="#0d09ba" p-id="30834" data-spm-anchor-id="a313x.search_index.0.i43.7ad53a81Q5rpFl" class=""></path></svg>