<svg t="1726711282286" class="icon" viewBox="0 0 1024 1024" version="1.1" xmlns="http://www.w3.org/2000/svg" p-id="19039" width="128" height="128"><path d="M672.426667 979.626667l-47.786667-47.786667 85.333333-85.333333c107.52-107.52 119.466667-278.186667 27.306667-397.653334l54.613333-40.96c112.64 148.48 97.28 356.693333-34.133333 486.4l-85.333333 85.333334z m131.413333-660.48L648.533333 163.84 776.533333 34.133333l157.013334 157.013334-129.706667 128z m-59.733333-155.306667l61.44 61.44 34.133333-34.133333-61.44-61.44-34.133333 34.133333z m0 0" fill="#0D09BA" p-id="19040"></path><path d="M170.666667 585.386667l47.786666-47.786667 211.626667 211.626667-47.786667 47.786666L170.666667 585.386667z m0 0" fill="#0D09BA" p-id="19041"></path><path d="M206.506667 921.6h670.72v68.266667H206.506667v-68.266667z m298.666666-180.906667L226.986667 462.506667 628.053333 61.44l278.186667 278.186667-401.066667 401.066666zM322.56 462.506667l182.613333 182.613333L808.96 341.333333 628.053333 158.72 322.56 462.506667z m0 0" fill="#0D09BA" p-id="19042"></path></svg>