<svg t="1721357653228" class="icon" viewBox="0 0 1024 1024" version="1.1" xmlns="http://www.w3.org/2000/svg" p-id="24912" width="24" height="24"><path d="M192 400h39.408c98.4 0 89.872-160 4.592-160H144v208h48v-48z m0-112h31.248c33.984 0 37.2 64-3.312 64H192v-64zM144 80v80h640v487.632L568.128 864H224V528H144v416h457.376L864 680.656V80H144z m336 720h80V640h160v-80H480v240z m-52.864-560H336v208h80.16c63.536 0 93.136-42.752 93.136-103.264 0-49.76-21.44-104.736-82.16-104.736zM384 399.968V288h26.624c40.56 0 44.352 44.272 44.352 56.72 0 63.856-38.976 55.248-70.976 55.248zM688 288v-48h-144v208h48v-80h80v-48h-80v-32h96z" fill="#13227a" p-id="24913"></path></svg>