<svg t="1719888139321" class="icon" viewBox="0 0 1024 1024" version="1.1" xmlns="http://www.w3.org/2000/svg" p-id="4207" width="20" height="20"><path d="M925.61 337.2c-22.62-53.43-54.97-101.39-96.16-142.53s-89.19-73.44-142.65-95.99C631.46 75.33 572.65 63.49 512 63.49c-60.6 0-119.41 11.88-174.78 35.3-53.47 22.62-101.48 54.99-142.71 96.21-41.23 41.23-73.6 89.24-96.21 142.71C74.88 393.09 63 451.89 63 512.49c0 60.6 11.88 119.41 35.29 174.78 22.62 53.47 54.99 101.48 96.21 142.71 41.23 41.23 89.24 73.6 142.71 96.21C392.59 949.62 451.4 961.5 512 961.5c77.84 0 153.03-19.39 217.42-56.07 19.96-11.37 34.81-26.24 42.93-43.01 8.18-16.9 9.45-35.5 3.57-52.38-7.85-22.54-26.74-38.72-50.68-45.48 4.05-8.27 7.17-17.15 9.24-26.54 6.78-30.75 1.56-63.27-14.7-91.58-32.54-56.64-82.1-82.04-129.33-66.29-8.64 2.88-17.88 3.04-26.73 0.48-31.16-9.04-56.13-29.15-70.32-56.62-12.16-23.54-14.73-49.75-7.03-71.91 2.58-7.43 7.5-14.2 14.22-19.57 40.55-32.41 44.99-88.91 11.58-147.45-17.02-29.83-45.19-51.94-77.27-60.66-29.32-7.97-59.42-4.34-84.76 10.21l-5.32 3.06c-45.09 25.9-76.35 69.35-88.04 122.33-11.5 52.12-2.59 107.34 25.07 155.48L404.4 728.83c27.66 48.15 70.88 83.65 121.7 99.97 19.9 6.39 40.03 9.56 59.85 9.56 31.63 0 62.46-8.07 90.18-24 0.63-0.36 1.23-0.74 1.82-1.15 1.15-0.6 2.28-1.23 3.39-1.86 3.02 0.7 6.22 0.86 9.47 0.36 21.35-3.29 34.62 5.36 37.9 14.78 3.91 11.23-5.3 24.83-24.03 35.5-56.87 32.38-123.5 49.51-192.68 49.51-220.01 0-399-178.99-399-399s178.99-399 399-399c219.75 0 398.74 178.78 399 398.52 0.08 66.59-16.56 132.5-48.12 190.61-6.59 12.13-2.1 27.31 10.04 33.9 12.13 6.59 27.31 2.09 33.9-10.04 35.54-65.43 54.27-139.62 54.18-214.53-0.07-60.66-11.98-119.45-35.39-174.76zM652.82 769.87c-1.6 0.76-3.09 1.68-4.47 2.73-68.03 36.82-157.38 6.52-200.59-68.68L325.2 490.59c-43.82-76.27-23.84-170.27 44.53-209.55l5.32-3.06c13.73-7.89 30.33-9.78 46.74-5.32 19.35 5.26 36.47 18.82 46.96 37.19 7.73 13.55 30.63 59.63 0.63 83.61-14.09 11.27-24.55 25.86-30.23 42.21-12.18 35.05-8.6 75.6 9.83 111.27 20.55 39.77 56.35 68.79 100.81 81.69 18.64 5.41 38.17 5.04 56.48-1.06 35.06-11.69 62.57 30.54 70.17 43.77 10.04 17.48 13.32 37.34 9.23 55.9-3.9 17.7-14.13 32.09-28.8 40.51-1.3 0.75-2.65 1.46-4.05 2.12z" fill="#ffffff" p-id="4208"></path></svg>