<svg t="1726710949755" class="icon" viewBox="0 0 1024 1024" version="1.1" xmlns="http://www.w3.org/2000/svg" p-id="8074" width="128" height="128"><path d="M839.593 795.474h-58.455l110.377 144.855c8.305 10.962 5.765 26.225-5.72 34.196-11.473 7.983-27.514 5.581-35.824-5.37l-32.809-43.136h-605.2l-32.803 43.136c-8.335 10.951-24.376 13.347-35.83 5.37-11.458-7.971-14.023-23.234-5.693-34.196l110.326-144.855h-58.425c-37.775 0-68.418-29.25-68.418-65.321V207.974c0-90.106 76.585-163.205 171.085-163.205h444.753c94.48 0 171.085 73.099 171.085 163.205v522.179c-0.005 36.07-30.648 65.32-68.449 65.32z m-34.872 114.222l-37.269-48.952H261.673l-37.274 48.952h580.322z m-494.848-112.25l-35.758 46.97H755.01l-35.733-46.97c-0.481-0.626-0.578-1.347-0.962-1.972h-407.48c-0.41 0.625-0.482 1.346-0.963 1.971z m546.816-589.472c0-63.109-53.597-114.217-119.742-114.217H292.198c-66.135 0-119.762 51.103-119.762 114.217V713.83c0 18.054 15.325 32.656 34.223 32.656h615.833c18.883 0 34.202-14.602 34.202-32.656V207.974zM737.96 627.558c-29.25 0-52.88-22.569-52.88-50.478 0-27.899 23.63-50.468 52.88-50.468s52.884 22.57 52.884 50.468c0 27.91-23.633 50.478-52.884 50.478z m-441.395 0c-29.225 0-52.905-22.569-52.905-50.478 0-27.899 23.675-50.468 52.905-50.468 29.204 0 52.905 22.57 52.905 50.468 0 27.91-23.7 50.478-52.905 50.478z m474.583-173.865H257.976c-9.436 0-17.121-7.347-17.121-16.327V257.828c0-54.129 45.967-97.982 102.661-97.982H685.66c56.668 0 102.59 43.853 102.59 97.982V437.36c0 8.99-7.634 16.332-17.101 16.332zM497.479 208.84H343.522c-28.365 0-51.317 21.903-51.317 48.993V404.71h205.28V208.84h-0.004z m239.473 48.988c0-27.09-22.953-48.993-51.292-48.993H548.777V404.7h188.175V257.828z" fill="#0D09BA" p-id="8075" data-spm-anchor-id="a313x.search_index.0.i12.7ad53a81Q5rpFl" class="selected"></path></svg>