<svg t="1726711812577" class="icon" viewBox="0 0 1024 1024" version="1.1" xmlns="http://www.w3.org/2000/svg" p-id="1068" width="128" height="128"><path d="M424.042005 176.764308v61.103711h176.260706v-61.103711z m120.025147-63.957456h55.983758a63.957456 63.957456 0 0 1 63.957456 63.957456v63.202053h55.983757A96.020118 96.020118 0 0 1 816.012241 335.734678v261.789115l32.650198 19.304744a63.957456 63.957456 0 0 1 25.1801 82.33893l-92.327036 197.076255a356.634161 356.634161 0 0 1 142.687238 34.832473c7.637964 3.44128 36.679014 17.37427 43.309774 20.311948a98.034526 98.034526 0 0 0 27.782044 8.813036 31.987121 31.987121 0 1 1-6.714693 63.621721 154.773686 154.773686 0 0 1-46.834988-13.849056c-7.805831-3.44128-37.266549-17.542137-43.981243-20.563749a293.767843 293.767843 0 0 0-129.845386-29.376784c-44.400911 0-67.146936 6.798627-114.401592 28.957116C598.791905 1014.758064 567.652513 1023.990767 512.00449 1023.990767s-86.703481-9.232704-141.5961-35.00034c-47.086789-22.158489-70.00068-28.957116-114.401591-28.957116-48.513661 0-70.420349 6.63076-110.876378 27.949912l-2.434076 1.259005c-40.03636 21.067351-64.712859 30.048254-107.351163 34.580672a31.987121 31.987121 0 1 1-6.714694-63.621721c33.069866-3.525214 50.360202-9.904173 83.93367-27.530244l2.434076-1.259005c48.513661-25.180101 79.988787-35.168207 139.329891-35.336075L151.089712 701.097941a63.957456 63.957456 0 0 1 24.340764-85.024807l32.566264-19.220811V335.734678a96.020118 96.020118 0 0 1 96.020118-95.768317h56.067691v-63.202053a63.957456 63.957456 0 0 1 63.957456-63.957456h55.983757V31.978728a31.978728 31.978728 0 0 1 63.957457 0zM272.03813 558.998239L478.431023 436.455081a63.957456 63.957456 0 0 1 65.132527 0l208.407301 123.214627V335.734678a31.978728 31.978728 0 0 0-31.978728-31.978728H304.016858A31.978728 31.978728 0 0 0 272.03813 335.734678z m271.357553 399.440332c26.690907-3.105546 48.26186-11.079244 83.010399-27.446309a355.878758 355.878758 0 0 1 81.751394-29.796453L816.012241 671.469356 511.416955 491.851303 207.912806 671.469356l123.802163 233.923136a420.171949 420.171949 0 0 1 65.803996 25.935504c34.748539 16.367066 56.319492 24.340764 83.010399 27.362376M337.254591 391.970236a24.005029 24.005029 0 1 1 0-48.010059h78.729782a24.005029 24.005029 0 1 1 0 48.010059z m174.749899 0a24.005029 24.005029 0 1 1 0-47.842191h176.260706a24.005029 24.005029 0 1 1 0 48.010059H512.00449z" fill="#0d09ba" p-id="1069" data-spm-anchor-id="a313x.manage_type_mylikes.0.i5.4dd63a81Zn94S7" class="selected"></path><path d="M480.025762 962.29952V634.28674a31.978728 31.978728 0 0 1 63.957457 0v328.01278" fill="#bb030f" p-id="1070" data-spm-anchor-id="a313x.manage_type_mylikes.0.i4.4dd63a81Zn94S7" class=""></path></svg>