<svg t="1726709107355" class="icon" viewBox="0 0 1024 1024" version="1.1" xmlns="http://www.w3.org/2000/svg" p-id="721" width="128" height="128"><path d="M986.944 493.312H764.16V299.904L1009.6 54.592a31.808 31.808 0 0 0-22.464-54.272H477.568a31.872 31.872 0 0 0-22.4 9.344L9.344 455.36a31.808 31.808 0 0 0 22.464 54.272H254.72v193.6l-245.312 245.12a31.808 31.808 0 0 0 22.464 54.272h509.312a31.872 31.872 0 0 0 22.528-9.28l445.696-445.76a31.936 31.936 0 0 0 7.04-34.688 32 32 0 0 0-29.44-19.584zM490.944 63.936h419.264l-382.08 381.952H108.8L490.88 63.936z m50.432 445.568a31.872 31.872 0 0 0 22.464-9.344l136.64-136.64V512l-381.952 382.08V509.44h222.848zM254.72 793.088v145.92H108.8l145.92-145.92z m273.344 145.92H363.52l382.08-382.08h164.672l-382.08 382.08z" fill="#0d09ba" p-id="722"></path></svg>